<svg class="rich-terminal" viewBox="0 0 2361 586.8" xmlns="http://www.w3.org/2000/svg">
    <!-- Generated with Rich https://www.textualize.io -->
    <style>

    @font-face {
        font-family: "Fira Code";
        src: local("FiraCode-Regular"),
                url("https://cdnjs.cloudflare.com/ajax/libs/firacode/6.2.0/woff2/FiraCode-Regular.woff2") format("woff2"),
                url("https://cdnjs.cloudflare.com/ajax/libs/firacode/6.2.0/woff/FiraCode-Regular.woff") format("woff");
        font-style: normal;
        font-weight: 400;
    }
    @font-face {
        font-family: "Fira Code";
        src: local("FiraCode-Bold"),
                url("https://cdnjs.cloudflare.com/ajax/libs/firacode/6.2.0/woff2/FiraCode-Bold.woff2") format("woff2"),
                url("https://cdnjs.cloudflare.com/ajax/libs/firacode/6.2.0/woff/FiraCode-Bold.woff") format("woff");
        font-style: bold;
        font-weight: 700;
    }

    .terminal-2735106376-matrix {
        font-family: Fira Code, monospace;
        font-size: 20px;
        line-height: 24.4px;
        font-variant-east-asian: full-width;
    }

    .terminal-2735106376-title {
        font-size: 18px;
        font-weight: bold;
        font-family: arial;
    }

    .terminal-2735106376-r1 { fill: #c5c8c6 }
.terminal-2735106376-r2 { fill: #e2e3e3 }
.terminal-2735106376-r3 { fill: #96989b }
.terminal-2735106376-r4 { fill: #c7c9ca }
.terminal-2735106376-r5 { fill: #777a7e }
.terminal-2735106376-r6 { fill: #e2e3e3;font-weight: bold }
.terminal-2735106376-r7 { fill: #4c5055 }
.terminal-2735106376-r8 { fill: #0178d4 }
.terminal-2735106376-r9 { fill: #fea62b }
.terminal-2735106376-r10 { fill: #383c42 }
.terminal-2735106376-r11 { fill: #333b42 }
.terminal-2735106376-r12 { fill: #dde6ed;font-weight: bold }
.terminal-2735106376-r13 { fill: #dee5ea }
    </style>

    <defs>
    <clipPath id="terminal-2735106376-clip-terminal">
      <rect x="0" y="0" width="2341.3999999999996" height="535.8" />
    </clipPath>
    <clipPath id="terminal-2735106376-line-0">
    <rect x="0" y="1.5" width="2342.4" height="24.65"/>
            </clipPath>
<clipPath id="terminal-2735106376-line-1">
    <rect x="0" y="25.9" width="2342.4" height="24.65"/>
            </clipPath>
<clipPath id="terminal-2735106376-line-2">
    <rect x="0" y="50.3" width="2342.4" height="24.65"/>
            </clipPath>
<clipPath id="terminal-2735106376-line-3">
    <rect x="0" y="74.7" width="2342.4" height="24.65"/>
            </clipPath>
<clipPath id="terminal-2735106376-line-4">
    <rect x="0" y="99.1" width="2342.4" height="24.65"/>
            </clipPath>
<clipPath id="terminal-2735106376-line-5">
    <rect x="0" y="123.5" width="2342.4" height="24.65"/>
            </clipPath>
<clipPath id="terminal-2735106376-line-6">
    <rect x="0" y="147.9" width="2342.4" height="24.65"/>
            </clipPath>
<clipPath id="terminal-2735106376-line-7">
    <rect x="0" y="172.3" width="2342.4" height="24.65"/>
            </clipPath>
<clipPath id="terminal-2735106376-line-8">
    <rect x="0" y="196.7" width="2342.4" height="24.65"/>
            </clipPath>
<clipPath id="terminal-2735106376-line-9">
    <rect x="0" y="221.1" width="2342.4" height="24.65"/>
            </clipPath>
<clipPath id="terminal-2735106376-line-10">
    <rect x="0" y="245.5" width="2342.4" height="24.65"/>
            </clipPath>
<clipPath id="terminal-2735106376-line-11">
    <rect x="0" y="269.9" width="2342.4" height="24.65"/>
            </clipPath>
<clipPath id="terminal-2735106376-line-12">
    <rect x="0" y="294.3" width="2342.4" height="24.65"/>
            </clipPath>
<clipPath id="terminal-2735106376-line-13">
    <rect x="0" y="318.7" width="2342.4" height="24.65"/>
            </clipPath>
<clipPath id="terminal-2735106376-line-14">
    <rect x="0" y="343.1" width="2342.4" height="24.65"/>
            </clipPath>
<clipPath id="terminal-2735106376-line-15">
    <rect x="0" y="367.5" width="2342.4" height="24.65"/>
            </clipPath>
<clipPath id="terminal-2735106376-line-16">
    <rect x="0" y="391.9" width="2342.4" height="24.65"/>
            </clipPath>
<clipPath id="terminal-2735106376-line-17">
    <rect x="0" y="416.3" width="2342.4" height="24.65"/>
            </clipPath>
<clipPath id="terminal-2735106376-line-18">
    <rect x="0" y="440.7" width="2342.4" height="24.65"/>
            </clipPath>
<clipPath id="terminal-2735106376-line-19">
    <rect x="0" y="465.1" width="2342.4" height="24.65"/>
            </clipPath>
<clipPath id="terminal-2735106376-line-20">
    <rect x="0" y="489.5" width="2342.4" height="24.65"/>
            </clipPath>
    </defs>

    <rect fill="#292929" stroke="rgba(255,255,255,0.35)" stroke-width="1" x="1" y="1" width="2359" height="584.8" rx="8"/><text class="terminal-2735106376-title" fill="#c5c8c6" text-anchor="middle" x="1179" y="27">AMD&#160;GPU&#160;Stats</text>
            <g transform="translate(26,22)">
            <circle cx="0" cy="0" r="7" fill="#ff5f57"/>
            <circle cx="22" cy="0" r="7" fill="#febc2e"/>
            <circle cx="44" cy="0" r="7" fill="#28c840"/>
            </g>
        
    <g transform="translate(9, 41)" clip-path="url(#terminal-2735106376-clip-terminal)">
    <rect fill="#24292f" x="0" y="1.5" width="12.2" height="24.65" shape-rendering="crispEdges"/><rect fill="#24292f" x="12.2" y="1.5" width="12.2" height="24.65" shape-rendering="crispEdges"/><rect fill="#24292f" x="24.4" y="1.5" width="61" height="24.65" shape-rendering="crispEdges"/><rect fill="#24292f" x="85.4" y="1.5" width="12.2" height="24.65" shape-rendering="crispEdges"/><rect fill="#24292f" x="97.6" y="1.5" width="866.2" height="24.65" shape-rendering="crispEdges"/><rect fill="#24292f" x="963.8" y="1.5" width="195.2" height="24.65" shape-rendering="crispEdges"/><rect fill="#24292f" x="1159" y="1.5" width="195.2" height="24.65" shape-rendering="crispEdges"/><rect fill="#24292f" x="1354.2" y="1.5" width="866.2" height="24.65" shape-rendering="crispEdges"/><rect fill="#2c3137" x="2220.4" y="1.5" width="12.2" height="24.65" shape-rendering="crispEdges"/><rect fill="#2c3137" x="2232.6" y="1.5" width="97.6" height="24.65" shape-rendering="crispEdges"/><rect fill="#2c3137" x="2330.2" y="1.5" width="12.2" height="24.65" shape-rendering="crispEdges"/><rect fill="#24292f" x="0" y="25.9" width="97.6" height="24.65" shape-rendering="crispEdges"/><rect fill="#24292f" x="97.6" y="25.9" width="109.8" height="24.65" shape-rendering="crispEdges"/><rect fill="#24292f" x="207.4" y="25.9" width="85.4" height="24.65" shape-rendering="crispEdges"/><rect fill="#24292f" x="292.8" y="25.9" width="2049.6" height="24.65" shape-rendering="crispEdges"/><rect fill="#24292f" x="0" y="50.3" width="24.4" height="24.65" shape-rendering="crispEdges"/><rect fill="#24292f" x="24.4" y="50.3" width="61" height="24.65" shape-rendering="crispEdges"/><rect fill="#24292f" x="85.4" y="50.3" width="12.2" height="24.65" shape-rendering="crispEdges"/><rect fill="#24292f" x="97.6" y="50.3" width="24.4" height="24.65" shape-rendering="crispEdges"/><rect fill="#24292f" x="122" y="50.3" width="73.2" height="24.65" shape-rendering="crispEdges"/><rect fill="#24292f" x="195.2" y="50.3" width="12.2" height="24.65" shape-rendering="crispEdges"/><rect fill="#24292f" x="207.4" y="50.3" width="24.4" height="24.65" shape-rendering="crispEdges"/><rect fill="#24292f" x="231.8" y="50.3" width="48.8" height="24.65" shape-rendering="crispEdges"/><rect fill="#24292f" x="280.6" y="50.3" width="12.2" height="24.65" shape-rendering="crispEdges"/><rect fill="#24292f" x="292.8" y="50.3" width="2049.6" height="24.65" shape-rendering="crispEdges"/><rect fill="#24292f" x="0" y="74.7" width="109.8" height="24.65" shape-rendering="crispEdges"/><rect fill="#24292f" x="109.8" y="74.7" width="12.2" height="24.65" shape-rendering="crispEdges"/><rect fill="#24292f" x="122" y="74.7" width="73.2" height="24.65" shape-rendering="crispEdges"/><rect fill="#24292f" x="195.2" y="74.7" width="12.2" height="24.65" shape-rendering="crispEdges"/><rect fill="#24292f" x="207.4" y="74.7" width="2135" height="24.65" shape-rendering="crispEdges"/><rect fill="#24292f" x="0" y="99.1" width="12.2" height="24.65" shape-rendering="crispEdges"/><rect fill="#24292f" x="12.2" y="99.1" width="61" height="24.65" shape-rendering="crispEdges"/><rect fill="#24292f" x="73.2" y="99.1" width="2257" height="24.65" shape-rendering="crispEdges"/><rect fill="#24292f" x="2330.2" y="99.1" width="12.2" height="24.65" shape-rendering="crispEdges"/><rect fill="#24292f" x="0" y="123.5" width="12.2" height="24.65" shape-rendering="crispEdges"/><rect fill="#24292f" x="12.2" y="123.5" width="61" height="24.65" shape-rendering="crispEdges"/><rect fill="#24292f" x="73.2" y="123.5" width="2257" height="24.65" shape-rendering="crispEdges"/><rect fill="#24292f" x="2330.2" y="123.5" width="12.2" height="24.65" shape-rendering="crispEdges"/><rect fill="#24292f" x="0" y="147.9" width="12.2" height="24.65" shape-rendering="crispEdges"/><rect fill="#24292f" x="12.2" y="147.9" width="12.2" height="24.65" shape-rendering="crispEdges"/><rect fill="#24292f" x="24.4" y="147.9" width="378.2" height="24.65" shape-rendering="crispEdges"/><rect fill="#24292f" x="402.6" y="147.9" width="36.6" height="24.65" shape-rendering="crispEdges"/><rect fill="#24292f" x="439.2" y="147.9" width="24.4" height="24.65" shape-rendering="crispEdges"/><rect fill="#24292f" x="463.6" y="147.9" width="1866.6" height="24.65" shape-rendering="crispEdges"/><rect fill="#24292f" x="2330.2" y="147.9" width="12.2" height="24.65" shape-rendering="crispEdges"/><rect fill="#24292f" x="0" y="172.3" width="12.2" height="24.65" shape-rendering="crispEdges"/><rect fill="#24292f" x="12.2" y="172.3" width="2318" height="24.65" shape-rendering="crispEdges"/><rect fill="#24292f" x="2330.2" y="172.3" width="12.2" height="24.65" shape-rendering="crispEdges"/><rect fill="#24292f" x="0" y="196.7" width="12.2" height="24.65" shape-rendering="crispEdges"/><rect fill="#24292f" x="12.2" y="196.7" width="2318" height="24.65" shape-rendering="crispEdges"/><rect fill="#24292f" x="2330.2" y="196.7" width="12.2" height="24.65" shape-rendering="crispEdges"/><rect fill="#24292f" x="0" y="221.1" width="12.2" height="24.65" shape-rendering="crispEdges"/><rect fill="#24292f" x="12.2" y="221.1" width="2318" height="24.65" shape-rendering="crispEdges"/><rect fill="#24292f" x="2330.2" y="221.1" width="12.2" height="24.65" shape-rendering="crispEdges"/><rect fill="#24292f" x="0" y="245.5" width="12.2" height="24.65" shape-rendering="crispEdges"/><rect fill="#24292f" x="12.2" y="245.5" width="2318" height="24.65" shape-rendering="crispEdges"/><rect fill="#24292f" x="2330.2" y="245.5" width="12.2" height="24.65" shape-rendering="crispEdges"/><rect fill="#24292f" x="0" y="269.9" width="12.2" height="24.65" shape-rendering="crispEdges"/><rect fill="#24292f" x="12.2" y="269.9" width="2318" height="24.65" shape-rendering="crispEdges"/><rect fill="#24292f" x="2330.2" y="269.9" width="12.2" height="24.65" shape-rendering="crispEdges"/><rect fill="#24292f" x="0" y="294.3" width="12.2" height="24.65" shape-rendering="crispEdges"/><rect fill="#24292f" x="12.2" y="294.3" width="2318" height="24.65" shape-rendering="crispEdges"/><rect fill="#24292f" x="2330.2" y="294.3" width="12.2" height="24.65" shape-rendering="crispEdges"/><rect fill="#24292f" x="0" y="318.7" width="12.2" height="24.65" shape-rendering="crispEdges"/><rect fill="#24292f" x="12.2" y="318.7" width="2318" height="24.65" shape-rendering="crispEdges"/><rect fill="#24292f" x="2330.2" y="318.7" width="12.2" height="24.65" shape-rendering="crispEdges"/><rect fill="#24292f" x="0" y="343.1" width="12.2" height="24.65" shape-rendering="crispEdges"/><rect fill="#24292f" x="12.2" y="343.1" width="2318" height="24.65" shape-rendering="crispEdges"/><rect fill="#24292f" x="2330.2" y="343.1" width="12.2" height="24.65" shape-rendering="crispEdges"/><rect fill="#24292f" x="0" y="367.5" width="12.2" height="24.65" shape-rendering="crispEdges"/><rect fill="#24292f" x="12.2" y="367.5" width="2318" height="24.65" shape-rendering="crispEdges"/><rect fill="#24292f" x="2330.2" y="367.5" width="12.2" height="24.65" shape-rendering="crispEdges"/><rect fill="#24292f" x="0" y="391.9" width="12.2" height="24.65" shape-rendering="crispEdges"/><rect fill="#24292f" x="12.2" y="391.9" width="2318" height="24.65" shape-rendering="crispEdges"/><rect fill="#24292f" x="2330.2" y="391.9" width="12.2" height="24.65" shape-rendering="crispEdges"/><rect fill="#24292f" x="0" y="416.3" width="12.2" height="24.65" shape-rendering="crispEdges"/><rect fill="#24292f" x="12.2" y="416.3" width="2318" height="24.65" shape-rendering="crispEdges"/><rect fill="#24292f" x="2330.2" y="416.3" width="12.2" height="24.65" shape-rendering="crispEdges"/><rect fill="#24292f" x="0" y="440.7" width="12.2" height="24.65" shape-rendering="crispEdges"/><rect fill="#24292f" x="12.2" y="440.7" width="2318" height="24.65" shape-rendering="crispEdges"/><rect fill="#24292f" x="2330.2" y="440.7" width="12.2" height="24.65" shape-rendering="crispEdges"/><rect fill="#24292f" x="0" y="465.1" width="12.2" height="24.65" shape-rendering="crispEdges"/><rect fill="#24292f" x="12.2" y="465.1" width="2318" height="24.65" shape-rendering="crispEdges"/><rect fill="#24292f" x="2330.2" y="465.1" width="12.2" height="24.65" shape-rendering="crispEdges"/><rect fill="#24292f" x="0" y="489.5" width="2342.4" height="24.65" shape-rendering="crispEdges"/><rect fill="#004578" x="0" y="513.9" width="36.6" height="24.65" shape-rendering="crispEdges"/><rect fill="#073b61" x="36.6" y="513.9" width="97.6" height="24.65" shape-rendering="crispEdges"/><rect fill="#004578" x="134.2" y="513.9" width="36.6" height="24.65" shape-rendering="crispEdges"/><rect fill="#073b61" x="170.8" y="513.9" width="146.4" height="24.65" shape-rendering="crispEdges"/><rect fill="#004578" x="317.2" y="513.9" width="36.6" height="24.65" shape-rendering="crispEdges"/><rect fill="#073b61" x="353.8" y="513.9" width="146.4" height="24.65" shape-rendering="crispEdges"/><rect fill="#004578" x="500.2" y="513.9" width="36.6" height="24.65" shape-rendering="crispEdges"/><rect fill="#073b61" x="536.8" y="513.9" width="158.6" height="24.65" shape-rendering="crispEdges"/><rect fill="#004578" x="695.4" y="513.9" width="36.6" height="24.65" shape-rendering="crispEdges"/><rect fill="#073b61" x="732" y="513.9" width="158.6" height="24.65" shape-rendering="crispEdges"/><rect fill="#004578" x="890.6" y="513.9" width="36.6" height="24.65" shape-rendering="crispEdges"/><rect fill="#073b61" x="927.2" y="513.9" width="73.2" height="24.65" shape-rendering="crispEdges"/><rect fill="#073b61" x="1000.4" y="513.9" width="1342" height="24.65" shape-rendering="crispEdges"/>
    <g class="terminal-2735106376-matrix">
    <text class="terminal-2735106376-r2" x="12.2" y="20" textLength="12.2" clip-path="url(#terminal-2735106376-line-0)">⭘</text><text class="terminal-2735106376-r2" x="963.8" y="20" textLength="195.2" clip-path="url(#terminal-2735106376-line-0)">AMD&#160;GPU&#160;Stats&#160;—&#160;</text><text class="terminal-2735106376-r3" x="1159" y="20" textLength="195.2" clip-path="url(#terminal-2735106376-line-0)">cards:&#160;[&#x27;card1&#x27;]</text><text class="terminal-2735106376-r4" x="2232.6" y="20" textLength="97.6" clip-path="url(#terminal-2735106376-line-0)">13:25:47</text><text class="terminal-2735106376-r1" x="2342.4" y="20" textLength="12.2" clip-path="url(#terminal-2735106376-line-0)">
</text><text class="terminal-2735106376-r1" x="2342.4" y="44.4" textLength="12.2" clip-path="url(#terminal-2735106376-line-1)">
</text><text class="terminal-2735106376-r5" x="24.4" y="68.8" textLength="61" clip-path="url(#terminal-2735106376-line-2)">Stats</text><text class="terminal-2735106376-r6" x="122" y="68.8" textLength="73.2" clip-path="url(#terminal-2735106376-line-2)">Graphs</text><text class="terminal-2735106376-r5" x="231.8" y="68.8" textLength="48.8" clip-path="url(#terminal-2735106376-line-2)">Logs</text><text class="terminal-2735106376-r1" x="2342.4" y="68.8" textLength="12.2" clip-path="url(#terminal-2735106376-line-2)">
</text><text class="terminal-2735106376-r7" x="0" y="93.2" textLength="109.8" clip-path="url(#terminal-2735106376-line-3)">━━━━━━━━━</text><text class="terminal-2735106376-r7" x="109.8" y="93.2" textLength="12.2" clip-path="url(#terminal-2735106376-line-3)">╸</text><text class="terminal-2735106376-r8" x="122" y="93.2" textLength="73.2" clip-path="url(#terminal-2735106376-line-3)">━━━━━━</text><text class="terminal-2735106376-r7" x="195.2" y="93.2" textLength="12.2" clip-path="url(#terminal-2735106376-line-3)">╺</text><text class="terminal-2735106376-r7" x="207.4" y="93.2" textLength="2135" clip-path="url(#terminal-2735106376-line-3)">━━━━━━━━━━━━━━━━━━━━━━━━━━━━━━━━━━━━━━━━━━━━━━━━━━━━━━━━━━━━━━━━━━━━━━━━━━━━━━━━━━━━━━━━━━━━━━━━━━━━━━━━━━━━━━━━━━━━━━━━━━━━━━━━━━━━━━━━━━━━━━━━━━━━━━━━━━━━━━━━━━━━━━━━━━━━━━━</text><text class="terminal-2735106376-r1" x="2342.4" y="93.2" textLength="12.2" clip-path="url(#terminal-2735106376-line-3)">
</text><text class="terminal-2735106376-r6" x="12.2" y="117.6" textLength="61" clip-path="url(#terminal-2735106376-line-4)">card1</text><text class="terminal-2735106376-r1" x="2342.4" y="117.6" textLength="12.2" clip-path="url(#terminal-2735106376-line-4)">
</text><text class="terminal-2735106376-r2" x="12.2" y="142" textLength="61" clip-path="url(#terminal-2735106376-line-5)">Core:</text><text class="terminal-2735106376-r1" x="2342.4" y="142" textLength="12.2" clip-path="url(#terminal-2735106376-line-5)">
</text><text class="terminal-2735106376-r9" x="12.2" y="166.4" textLength="12.2" clip-path="url(#terminal-2735106376-line-6)">╸</text><text class="terminal-2735106376-r10" x="24.4" y="166.4" textLength="378.2" clip-path="url(#terminal-2735106376-line-6)">━━━━━━━━━━━━━━━━━━━━━━━━━━━━━━━</text><text class="terminal-2735106376-r2" x="439.2" y="166.4" textLength="24.4" clip-path="url(#terminal-2735106376-line-6)">2%</text><text class="terminal-2735106376-r1" x="2342.4" y="166.4" textLength="12.2" clip-path="url(#terminal-2735106376-line-6)">
</text><text class="terminal-2735106376-r1" x="2342.4" y="190.8" textLength="12.2" clip-path="url(#terminal-2735106376-line-7)">
</text><text class="terminal-2735106376-r1" x="2342.4" y="215.2" textLength="12.2" clip-path="url(#terminal-2735106376-line-8)">
</text><text class="terminal-2735106376-r1" x="2342.4" y="239.6" textLength="12.2" clip-path="url(#terminal-2735106376-line-9)">
</text><text class="terminal-2735106376-r1" x="2342.4" y="264" textLength="12.2" clip-path="url(#terminal-2735106376-line-10)">
</text><text class="terminal-2735106376-r1" x="2342.4" y="288.4" textLength="12.2" clip-path="url(#terminal-2735106376-line-11)">
</text><text class="terminal-2735106376-r1" x="2342.4" y="312.8" textLength="12.2" clip-path="url(#terminal-2735106376-line-12)">
</text><text class="terminal-2735106376-r1" x="2342.4" y="337.2" textLength="12.2" clip-path="url(#terminal-2735106376-line-13)">
</text><text class="terminal-2735106376-r1" x="2342.4" y="361.6" textLength="12.2" clip-path="url(#terminal-2735106376-line-14)">
</text><text class="terminal-2735106376-r1" x="2342.4" y="386" textLength="12.2" clip-path="url(#terminal-2735106376-line-15)">
</text><text class="terminal-2735106376-r1" x="2342.4" y="410.4" textLength="12.2" clip-path="url(#terminal-2735106376-line-16)">
</text><text class="terminal-2735106376-r1" x="2342.4" y="434.8" textLength="12.2" clip-path="url(#terminal-2735106376-line-17)">
</text><text class="terminal-2735106376-r1" x="2342.4" y="459.2" textLength="12.2" clip-path="url(#terminal-2735106376-line-18)">
</text><text class="terminal-2735106376-r1" x="2342.4" y="483.6" textLength="12.2" clip-path="url(#terminal-2735106376-line-19)">
</text><text class="terminal-2735106376-r11" x="0" y="508" textLength="2342.4" clip-path="url(#terminal-2735106376-line-20)">━━━━━━━━━━━━━━━━━━━━━━━━━━━━━━━━━━━━━━━━━━━━━━━━━━━━━━━━━━━━━━━━━━━━━━━━━━━━━━━━━━━━━━━━━━━━━━━━━━━━━━━━━━━━━━━━━━━━━━━━━━━━━━━━━━━━━━━━━━━━━━━━━━━━━━━━━━━━━━━━━━━━━━━━━━━━━━━━━━━━━━━━━━━━━━━━</text><text class="terminal-2735106376-r1" x="2342.4" y="508" textLength="12.2" clip-path="url(#terminal-2735106376-line-20)">
</text><text class="terminal-2735106376-r12" x="0" y="532.4" textLength="36.6" clip-path="url(#terminal-2735106376-line-21)">&#160;C&#160;</text><text class="terminal-2735106376-r13" x="36.6" y="532.4" textLength="97.6" clip-path="url(#terminal-2735106376-line-21)">&#160;Colors&#160;</text><text class="terminal-2735106376-r12" x="134.2" y="532.4" textLength="36.6" clip-path="url(#terminal-2735106376-line-21)">&#160;T&#160;</text><text class="terminal-2735106376-r13" x="170.8" y="532.4" textLength="146.4" clip-path="url(#terminal-2735106376-line-21)">&#160;Tab&#160;switch&#160;</text><text class="terminal-2735106376-r12" x="317.2" y="532.4" textLength="36.6" clip-path="url(#terminal-2735106376-line-21)">&#160;S&#160;</text><text class="terminal-2735106376-r13" x="353.8" y="532.4" textLength="146.4" clip-path="url(#terminal-2735106376-line-21)">&#160;Screenshot&#160;</text><text class="terminal-2735106376-r12" x="500.2" y="532.4" textLength="36.6" clip-path="url(#terminal-2735106376-line-21)">&#160;↑&#160;</text><text class="terminal-2735106376-r13" x="536.8" y="532.4" textLength="158.6" clip-path="url(#terminal-2735106376-line-21)">&#160;Scroll&#160;Logs&#160;</text><text class="terminal-2735106376-r12" x="695.4" y="532.4" textLength="36.6" clip-path="url(#terminal-2735106376-line-21)">&#160;↓&#160;</text><text class="terminal-2735106376-r13" x="732" y="532.4" textLength="158.6" clip-path="url(#terminal-2735106376-line-21)">&#160;Scroll&#160;Logs&#160;</text><text class="terminal-2735106376-r12" x="890.6" y="532.4" textLength="36.6" clip-path="url(#terminal-2735106376-line-21)">&#160;Q&#160;</text><text class="terminal-2735106376-r13" x="927.2" y="532.4" textLength="73.2" clip-path="url(#terminal-2735106376-line-21)">&#160;Quit&#160;</text>
    </g>
    </g>
</svg>
