<svg class="rich-terminal" viewBox="0 0 1958 440.4" xmlns="http://www.w3.org/2000/svg">
    <!-- Generated with Rich https://www.textualize.io -->
    <style>

    @font-face {
        font-family: "Fira Code";
        src: local("FiraCode-Regular"),
                url("https://cdnjs.cloudflare.com/ajax/libs/firacode/6.2.0/woff2/FiraCode-Regular.woff2") format("woff2"),
                url("https://cdnjs.cloudflare.com/ajax/libs/firacode/6.2.0/woff/FiraCode-Regular.woff") format("woff");
        font-style: normal;
        font-weight: 400;
    }
    @font-face {
        font-family: "Fira Code";
        src: local("FiraCode-Bold"),
                url("https://cdnjs.cloudflare.com/ajax/libs/firacode/6.2.0/woff2/FiraCode-Bold.woff2") format("woff2"),
                url("https://cdnjs.cloudflare.com/ajax/libs/firacode/6.2.0/woff/FiraCode-Bold.woff") format("woff");
        font-style: bold;
        font-weight: 700;
    }

    .terminal-382937951-matrix {
        font-family: Fira Code, monospace;
        font-size: 20px;
        line-height: 24.4px;
        font-variant-east-asian: full-width;
    }

    .terminal-382937951-title {
        font-size: 18px;
        font-weight: bold;
        font-family: arial;
    }

    .terminal-382937951-r1 { fill: #c5c8c6 }
.terminal-382937951-r2 { fill: #e2e3e3 }
.terminal-382937951-r3 { fill: #96989b }
.terminal-382937951-r4 { fill: #c7c9ca }
.terminal-382937951-r5 { fill: #777a7e }
.terminal-382937951-r6 { fill: #e2e3e3;font-weight: bold }
.terminal-382937951-r7 { fill: #4c5055 }
.terminal-382937951-r8 { fill: #0178d4 }
.terminal-382937951-r9 { fill: #fea62b }
.terminal-382937951-r10 { fill: #383c42 }
.terminal-382937951-r11 { fill: #e2e3e3;font-style: italic; }
.terminal-382937951-r12 { fill: #333b42 }
.terminal-382937951-r13 { fill: #dde6ed;font-weight: bold }
.terminal-382937951-r14 { fill: #dee5ea }
    </style>

    <defs>
    <clipPath id="terminal-382937951-clip-terminal">
      <rect x="0" y="0" width="1938.8" height="389.4" />
    </clipPath>
    <clipPath id="terminal-382937951-line-0">
    <rect x="0" y="1.5" width="1939.8" height="24.65"/>
            </clipPath>
<clipPath id="terminal-382937951-line-1">
    <rect x="0" y="25.9" width="1939.8" height="24.65"/>
            </clipPath>
<clipPath id="terminal-382937951-line-2">
    <rect x="0" y="50.3" width="1939.8" height="24.65"/>
            </clipPath>
<clipPath id="terminal-382937951-line-3">
    <rect x="0" y="74.7" width="1939.8" height="24.65"/>
            </clipPath>
<clipPath id="terminal-382937951-line-4">
    <rect x="0" y="99.1" width="1939.8" height="24.65"/>
            </clipPath>
<clipPath id="terminal-382937951-line-5">
    <rect x="0" y="123.5" width="1939.8" height="24.65"/>
            </clipPath>
<clipPath id="terminal-382937951-line-6">
    <rect x="0" y="147.9" width="1939.8" height="24.65"/>
            </clipPath>
<clipPath id="terminal-382937951-line-7">
    <rect x="0" y="172.3" width="1939.8" height="24.65"/>
            </clipPath>
<clipPath id="terminal-382937951-line-8">
    <rect x="0" y="196.7" width="1939.8" height="24.65"/>
            </clipPath>
<clipPath id="terminal-382937951-line-9">
    <rect x="0" y="221.1" width="1939.8" height="24.65"/>
            </clipPath>
<clipPath id="terminal-382937951-line-10">
    <rect x="0" y="245.5" width="1939.8" height="24.65"/>
            </clipPath>
<clipPath id="terminal-382937951-line-11">
    <rect x="0" y="269.9" width="1939.8" height="24.65"/>
            </clipPath>
<clipPath id="terminal-382937951-line-12">
    <rect x="0" y="294.3" width="1939.8" height="24.65"/>
            </clipPath>
<clipPath id="terminal-382937951-line-13">
    <rect x="0" y="318.7" width="1939.8" height="24.65"/>
            </clipPath>
<clipPath id="terminal-382937951-line-14">
    <rect x="0" y="343.1" width="1939.8" height="24.65"/>
            </clipPath>
    </defs>

    <rect fill="#292929" stroke="rgba(255,255,255,0.35)" stroke-width="1" x="1" y="1" width="1956" height="438.4" rx="8"/><text class="terminal-382937951-title" fill="#c5c8c6" text-anchor="middle" x="978" y="27">AMD&#160;GPU&#160;Stats</text>
            <g transform="translate(26,22)">
            <circle cx="0" cy="0" r="7" fill="#ff5f57"/>
            <circle cx="22" cy="0" r="7" fill="#febc2e"/>
            <circle cx="44" cy="0" r="7" fill="#28c840"/>
            </g>
        
    <g transform="translate(9, 41)" clip-path="url(#terminal-382937951-clip-terminal)">
    <rect fill="#24292f" x="0" y="1.5" width="12.2" height="24.65" shape-rendering="crispEdges"/><rect fill="#24292f" x="12.2" y="1.5" width="12.2" height="24.65" shape-rendering="crispEdges"/><rect fill="#24292f" x="24.4" y="1.5" width="61" height="24.65" shape-rendering="crispEdges"/><rect fill="#24292f" x="85.4" y="1.5" width="12.2" height="24.65" shape-rendering="crispEdges"/><rect fill="#24292f" x="97.6" y="1.5" width="658.8" height="24.65" shape-rendering="crispEdges"/><rect fill="#24292f" x="756.4" y="1.5" width="195.2" height="24.65" shape-rendering="crispEdges"/><rect fill="#24292f" x="951.6" y="1.5" width="195.2" height="24.65" shape-rendering="crispEdges"/><rect fill="#24292f" x="1146.8" y="1.5" width="671" height="24.65" shape-rendering="crispEdges"/><rect fill="#2c3137" x="1817.8" y="1.5" width="12.2" height="24.65" shape-rendering="crispEdges"/><rect fill="#2c3137" x="1830" y="1.5" width="0" height="24.65" shape-rendering="crispEdges"/><rect fill="#2c3137" x="1830" y="1.5" width="97.6" height="24.65" shape-rendering="crispEdges"/><rect fill="#2c3137" x="1927.6" y="1.5" width="12.2" height="24.65" shape-rendering="crispEdges"/><rect fill="#24292f" x="0" y="25.9" width="97.6" height="24.65" shape-rendering="crispEdges"/><rect fill="#24292f" x="97.6" y="25.9" width="109.8" height="24.65" shape-rendering="crispEdges"/><rect fill="#24292f" x="207.4" y="25.9" width="85.4" height="24.65" shape-rendering="crispEdges"/><rect fill="#24292f" x="292.8" y="25.9" width="1647" height="24.65" shape-rendering="crispEdges"/><rect fill="#24292f" x="0" y="50.3" width="24.4" height="24.65" shape-rendering="crispEdges"/><rect fill="#24292f" x="24.4" y="50.3" width="61" height="24.65" shape-rendering="crispEdges"/><rect fill="#24292f" x="85.4" y="50.3" width="12.2" height="24.65" shape-rendering="crispEdges"/><rect fill="#24292f" x="97.6" y="50.3" width="24.4" height="24.65" shape-rendering="crispEdges"/><rect fill="#24292f" x="122" y="50.3" width="73.2" height="24.65" shape-rendering="crispEdges"/><rect fill="#24292f" x="195.2" y="50.3" width="12.2" height="24.65" shape-rendering="crispEdges"/><rect fill="#24292f" x="207.4" y="50.3" width="24.4" height="24.65" shape-rendering="crispEdges"/><rect fill="#24292f" x="231.8" y="50.3" width="48.8" height="24.65" shape-rendering="crispEdges"/><rect fill="#24292f" x="280.6" y="50.3" width="12.2" height="24.65" shape-rendering="crispEdges"/><rect fill="#24292f" x="292.8" y="50.3" width="1647" height="24.65" shape-rendering="crispEdges"/><rect fill="#24292f" x="0" y="74.7" width="109.8" height="24.65" shape-rendering="crispEdges"/><rect fill="#24292f" x="109.8" y="74.7" width="12.2" height="24.65" shape-rendering="crispEdges"/><rect fill="#24292f" x="122" y="74.7" width="73.2" height="24.65" shape-rendering="crispEdges"/><rect fill="#24292f" x="195.2" y="74.7" width="12.2" height="24.65" shape-rendering="crispEdges"/><rect fill="#24292f" x="207.4" y="74.7" width="1732.4" height="24.65" shape-rendering="crispEdges"/><rect fill="#24292f" x="0" y="99.1" width="12.2" height="24.65" shape-rendering="crispEdges"/><rect fill="#24292f" x="12.2" y="99.1" width="61" height="24.65" shape-rendering="crispEdges"/><rect fill="#24292f" x="73.2" y="99.1" width="1854.4" height="24.65" shape-rendering="crispEdges"/><rect fill="#24292f" x="1927.6" y="99.1" width="12.2" height="24.65" shape-rendering="crispEdges"/><rect fill="#24292f" x="0" y="123.5" width="12.2" height="24.65" shape-rendering="crispEdges"/><rect fill="#24292f" x="12.2" y="123.5" width="61" height="24.65" shape-rendering="crispEdges"/><rect fill="#24292f" x="73.2" y="123.5" width="1854.4" height="24.65" shape-rendering="crispEdges"/><rect fill="#24292f" x="1927.6" y="123.5" width="12.2" height="24.65" shape-rendering="crispEdges"/><rect fill="#24292f" x="0" y="147.9" width="12.2" height="24.65" shape-rendering="crispEdges"/><rect fill="#24292f" x="12.2" y="147.9" width="268.4" height="24.65" shape-rendering="crispEdges"/><rect fill="#24292f" x="280.6" y="147.9" width="12.2" height="24.65" shape-rendering="crispEdges"/><rect fill="#24292f" x="292.8" y="147.9" width="109.8" height="24.65" shape-rendering="crispEdges"/><rect fill="#24292f" x="402.6" y="147.9" width="24.4" height="24.65" shape-rendering="crispEdges"/><rect fill="#24292f" x="427" y="147.9" width="36.6" height="24.65" shape-rendering="crispEdges"/><rect fill="#24292f" x="463.6" y="147.9" width="1464" height="24.65" shape-rendering="crispEdges"/><rect fill="#24292f" x="1927.6" y="147.9" width="12.2" height="24.65" shape-rendering="crispEdges"/><rect fill="#24292f" x="0" y="172.3" width="12.2" height="24.65" shape-rendering="crispEdges"/><rect fill="#24292f" x="12.2" y="172.3" width="73.2" height="24.65" shape-rendering="crispEdges"/><rect fill="#24292f" x="85.4" y="172.3" width="85.4" height="24.65" shape-rendering="crispEdges"/><rect fill="#24292f" x="170.8" y="172.3" width="12.2" height="24.65" shape-rendering="crispEdges"/><rect fill="#24292f" x="183" y="172.3" width="1744.6" height="24.65" shape-rendering="crispEdges"/><rect fill="#24292f" x="1927.6" y="172.3" width="12.2" height="24.65" shape-rendering="crispEdges"/><rect fill="#24292f" x="0" y="196.7" width="12.2" height="24.65" shape-rendering="crispEdges"/><rect fill="#24292f" x="12.2" y="196.7" width="61" height="24.65" shape-rendering="crispEdges"/><rect fill="#24292f" x="73.2" y="196.7" width="12.2" height="24.65" shape-rendering="crispEdges"/><rect fill="#24292f" x="85.4" y="196.7" width="317.2" height="24.65" shape-rendering="crispEdges"/><rect fill="#24292f" x="402.6" y="196.7" width="24.4" height="24.65" shape-rendering="crispEdges"/><rect fill="#24292f" x="427" y="196.7" width="36.6" height="24.65" shape-rendering="crispEdges"/><rect fill="#24292f" x="463.6" y="196.7" width="1464" height="24.65" shape-rendering="crispEdges"/><rect fill="#24292f" x="1927.6" y="196.7" width="12.2" height="24.65" shape-rendering="crispEdges"/><rect fill="#24292f" x="0" y="221.1" width="12.2" height="24.65" shape-rendering="crispEdges"/><rect fill="#24292f" x="12.2" y="221.1" width="73.2" height="24.65" shape-rendering="crispEdges"/><rect fill="#24292f" x="85.4" y="221.1" width="146.4" height="24.65" shape-rendering="crispEdges"/><rect fill="#24292f" x="231.8" y="221.1" width="12.2" height="24.65" shape-rendering="crispEdges"/><rect fill="#24292f" x="244" y="221.1" width="1683.6" height="24.65" shape-rendering="crispEdges"/><rect fill="#24292f" x="1927.6" y="221.1" width="12.2" height="24.65" shape-rendering="crispEdges"/><rect fill="#24292f" x="0" y="245.5" width="12.2" height="24.65" shape-rendering="crispEdges"/><rect fill="#24292f" x="12.2" y="245.5" width="48.8" height="24.65" shape-rendering="crispEdges"/><rect fill="#24292f" x="61" y="245.5" width="12.2" height="24.65" shape-rendering="crispEdges"/><rect fill="#24292f" x="73.2" y="245.5" width="329.4" height="24.65" shape-rendering="crispEdges"/><rect fill="#24292f" x="402.6" y="245.5" width="24.4" height="24.65" shape-rendering="crispEdges"/><rect fill="#24292f" x="427" y="245.5" width="36.6" height="24.65" shape-rendering="crispEdges"/><rect fill="#24292f" x="463.6" y="245.5" width="1464" height="24.65" shape-rendering="crispEdges"/><rect fill="#24292f" x="1927.6" y="245.5" width="12.2" height="24.65" shape-rendering="crispEdges"/><rect fill="#24292f" x="0" y="269.9" width="12.2" height="24.65" shape-rendering="crispEdges"/><rect fill="#24292f" x="12.2" y="269.9" width="1915.4" height="24.65" shape-rendering="crispEdges"/><rect fill="#24292f" x="1927.6" y="269.9" width="12.2" height="24.65" shape-rendering="crispEdges"/><rect fill="#24292f" x="0" y="294.3" width="12.2" height="24.65" shape-rendering="crispEdges"/><rect fill="#24292f" x="12.2" y="294.3" width="1915.4" height="24.65" shape-rendering="crispEdges"/><rect fill="#24292f" x="1927.6" y="294.3" width="12.2" height="24.65" shape-rendering="crispEdges"/><rect fill="#24292f" x="0" y="318.7" width="12.2" height="24.65" shape-rendering="crispEdges"/><rect fill="#24292f" x="12.2" y="318.7" width="1915.4" height="24.65" shape-rendering="crispEdges"/><rect fill="#24292f" x="1927.6" y="318.7" width="12.2" height="24.65" shape-rendering="crispEdges"/><rect fill="#24292f" x="0" y="343.1" width="1939.8" height="24.65" shape-rendering="crispEdges"/><rect fill="#004578" x="0" y="367.5" width="36.6" height="24.65" shape-rendering="crispEdges"/><rect fill="#073b61" x="36.6" y="367.5" width="97.6" height="24.65" shape-rendering="crispEdges"/><rect fill="#004578" x="134.2" y="367.5" width="36.6" height="24.65" shape-rendering="crispEdges"/><rect fill="#073b61" x="170.8" y="367.5" width="146.4" height="24.65" shape-rendering="crispEdges"/><rect fill="#004578" x="317.2" y="367.5" width="36.6" height="24.65" shape-rendering="crispEdges"/><rect fill="#073b61" x="353.8" y="367.5" width="146.4" height="24.65" shape-rendering="crispEdges"/><rect fill="#004578" x="500.2" y="367.5" width="36.6" height="24.65" shape-rendering="crispEdges"/><rect fill="#073b61" x="536.8" y="367.5" width="158.6" height="24.65" shape-rendering="crispEdges"/><rect fill="#004578" x="695.4" y="367.5" width="36.6" height="24.65" shape-rendering="crispEdges"/><rect fill="#073b61" x="732" y="367.5" width="158.6" height="24.65" shape-rendering="crispEdges"/><rect fill="#004578" x="890.6" y="367.5" width="36.6" height="24.65" shape-rendering="crispEdges"/><rect fill="#073b61" x="927.2" y="367.5" width="73.2" height="24.65" shape-rendering="crispEdges"/><rect fill="#073b61" x="1000.4" y="367.5" width="939.4" height="24.65" shape-rendering="crispEdges"/>
    <g class="terminal-382937951-matrix">
    <text class="terminal-382937951-r2" x="12.2" y="20" textLength="12.2" clip-path="url(#terminal-382937951-line-0)">⭘</text><text class="terminal-382937951-r2" x="756.4" y="20" textLength="195.2" clip-path="url(#terminal-382937951-line-0)">AMD&#160;GPU&#160;Stats&#160;—&#160;</text><text class="terminal-382937951-r3" x="951.6" y="20" textLength="195.2" clip-path="url(#terminal-382937951-line-0)">cards:&#160;[&#x27;card0&#x27;]</text><text class="terminal-382937951-r4" x="1830" y="20" textLength="97.6" clip-path="url(#terminal-382937951-line-0)">18:57:42</text><text class="terminal-382937951-r1" x="1939.8" y="20" textLength="12.2" clip-path="url(#terminal-382937951-line-0)">
</text><text class="terminal-382937951-r1" x="1939.8" y="44.4" textLength="12.2" clip-path="url(#terminal-382937951-line-1)">
</text><text class="terminal-382937951-r5" x="24.4" y="68.8" textLength="61" clip-path="url(#terminal-382937951-line-2)">Stats</text><text class="terminal-382937951-r6" x="122" y="68.8" textLength="73.2" clip-path="url(#terminal-382937951-line-2)">Graphs</text><text class="terminal-382937951-r5" x="231.8" y="68.8" textLength="48.8" clip-path="url(#terminal-382937951-line-2)">Logs</text><text class="terminal-382937951-r1" x="1939.8" y="68.8" textLength="12.2" clip-path="url(#terminal-382937951-line-2)">
</text><text class="terminal-382937951-r7" x="0" y="93.2" textLength="109.8" clip-path="url(#terminal-382937951-line-3)">━━━━━━━━━</text><text class="terminal-382937951-r7" x="109.8" y="93.2" textLength="12.2" clip-path="url(#terminal-382937951-line-3)">╸</text><text class="terminal-382937951-r8" x="122" y="93.2" textLength="73.2" clip-path="url(#terminal-382937951-line-3)">━━━━━━</text><text class="terminal-382937951-r7" x="195.2" y="93.2" textLength="12.2" clip-path="url(#terminal-382937951-line-3)">╺</text><text class="terminal-382937951-r7" x="207.4" y="93.2" textLength="1732.4" clip-path="url(#terminal-382937951-line-3)">━━━━━━━━━━━━━━━━━━━━━━━━━━━━━━━━━━━━━━━━━━━━━━━━━━━━━━━━━━━━━━━━━━━━━━━━━━━━━━━━━━━━━━━━━━━━━━━━━━━━━━━━━━━━━━━━━━━━━━━━━━━━━━━━━━━━━━━━━━━━━━</text><text class="terminal-382937951-r1" x="1939.8" y="93.2" textLength="12.2" clip-path="url(#terminal-382937951-line-3)">
</text><text class="terminal-382937951-r6" x="12.2" y="117.6" textLength="61" clip-path="url(#terminal-382937951-line-4)">card0</text><text class="terminal-382937951-r1" x="1939.8" y="117.6" textLength="12.2" clip-path="url(#terminal-382937951-line-4)">
</text><text class="terminal-382937951-r2" x="12.2" y="142" textLength="61" clip-path="url(#terminal-382937951-line-5)">Core:</text><text class="terminal-382937951-r1" x="1939.8" y="142" textLength="12.2" clip-path="url(#terminal-382937951-line-5)">
</text><text class="terminal-382937951-r9" x="12.2" y="166.4" textLength="268.4" clip-path="url(#terminal-382937951-line-6)">━━━━━━━━━━━━━━━━━━━━━━</text><text class="terminal-382937951-r10" x="280.6" y="166.4" textLength="12.2" clip-path="url(#terminal-382937951-line-6)">╺</text><text class="terminal-382937951-r10" x="292.8" y="166.4" textLength="109.8" clip-path="url(#terminal-382937951-line-6)">━━━━━━━━━</text><text class="terminal-382937951-r2" x="427" y="166.4" textLength="36.6" clip-path="url(#terminal-382937951-line-6)">69%</text><text class="terminal-382937951-r1" x="1939.8" y="166.4" textLength="12.2" clip-path="url(#terminal-382937951-line-6)">
</text><text class="terminal-382937951-r2" x="12.2" y="190.8" textLength="73.2" clip-path="url(#terminal-382937951-line-7)">Power&#160;</text><text class="terminal-382937951-r11" x="85.4" y="190.8" textLength="85.4" clip-path="url(#terminal-382937951-line-7)">(limit)</text><text class="terminal-382937951-r2" x="170.8" y="190.8" textLength="12.2" clip-path="url(#terminal-382937951-line-7)">:</text><text class="terminal-382937951-r1" x="1939.8" y="190.8" textLength="12.2" clip-path="url(#terminal-382937951-line-7)">
</text><text class="terminal-382937951-r9" x="12.2" y="215.2" textLength="61" clip-path="url(#terminal-382937951-line-8)">━━━━━</text><text class="terminal-382937951-r10" x="73.2" y="215.2" textLength="12.2" clip-path="url(#terminal-382937951-line-8)">╺</text><text class="terminal-382937951-r10" x="85.4" y="215.2" textLength="317.2" clip-path="url(#terminal-382937951-line-8)">━━━━━━━━━━━━━━━━━━━━━━━━━━</text><text class="terminal-382937951-r2" x="427" y="215.2" textLength="36.6" clip-path="url(#terminal-382937951-line-8)">15%</text><text class="terminal-382937951-r1" x="1939.8" y="215.2" textLength="12.2" clip-path="url(#terminal-382937951-line-8)">
</text><text class="terminal-382937951-r2" x="12.2" y="239.6" textLength="73.2" clip-path="url(#terminal-382937951-line-9)">Power&#160;</text><text class="terminal-382937951-r11" x="85.4" y="239.6" textLength="146.4" clip-path="url(#terminal-382937951-line-9)">(capability)</text><text class="terminal-382937951-r2" x="231.8" y="239.6" textLength="12.2" clip-path="url(#terminal-382937951-line-9)">:</text><text class="terminal-382937951-r1" x="1939.8" y="239.6" textLength="12.2" clip-path="url(#terminal-382937951-line-9)">
</text><text class="terminal-382937951-r9" x="12.2" y="264" textLength="48.8" clip-path="url(#terminal-382937951-line-10)">━━━━</text><text class="terminal-382937951-r9" x="61" y="264" textLength="12.2" clip-path="url(#terminal-382937951-line-10)">╸</text><text class="terminal-382937951-r10" x="73.2" y="264" textLength="329.4" clip-path="url(#terminal-382937951-line-10)">━━━━━━━━━━━━━━━━━━━━━━━━━━━</text><text class="terminal-382937951-r2" x="427" y="264" textLength="36.6" clip-path="url(#terminal-382937951-line-10)">13%</text><text class="terminal-382937951-r1" x="1939.8" y="264" textLength="12.2" clip-path="url(#terminal-382937951-line-10)">
</text><text class="terminal-382937951-r1" x="1939.8" y="288.4" textLength="12.2" clip-path="url(#terminal-382937951-line-11)">
</text><text class="terminal-382937951-r1" x="1939.8" y="312.8" textLength="12.2" clip-path="url(#terminal-382937951-line-12)">
</text><text class="terminal-382937951-r1" x="1939.8" y="337.2" textLength="12.2" clip-path="url(#terminal-382937951-line-13)">
</text><text class="terminal-382937951-r12" x="0" y="361.6" textLength="1939.8" clip-path="url(#terminal-382937951-line-14)">━━━━━━━━━━━━━━━━━━━━━━━━━━━━━━━━━━━━━━━━━━━━━━━━━━━━━━━━━━━━━━━━━━━━━━━━━━━━━━━━━━━━━━━━━━━━━━━━━━━━━━━━━━━━━━━━━━━━━━━━━━━━━━━━━━━━━━━━━━━━━━━━━━━━━━━━━━━━━━━</text><text class="terminal-382937951-r1" x="1939.8" y="361.6" textLength="12.2" clip-path="url(#terminal-382937951-line-14)">
</text><text class="terminal-382937951-r13" x="0" y="386" textLength="36.6" clip-path="url(#terminal-382937951-line-15)">&#160;C&#160;</text><text class="terminal-382937951-r14" x="36.6" y="386" textLength="97.6" clip-path="url(#terminal-382937951-line-15)">&#160;Colors&#160;</text><text class="terminal-382937951-r13" x="134.2" y="386" textLength="36.6" clip-path="url(#terminal-382937951-line-15)">&#160;T&#160;</text><text class="terminal-382937951-r14" x="170.8" y="386" textLength="146.4" clip-path="url(#terminal-382937951-line-15)">&#160;Tab&#160;switch&#160;</text><text class="terminal-382937951-r13" x="317.2" y="386" textLength="36.6" clip-path="url(#terminal-382937951-line-15)">&#160;S&#160;</text><text class="terminal-382937951-r14" x="353.8" y="386" textLength="146.4" clip-path="url(#terminal-382937951-line-15)">&#160;Screenshot&#160;</text><text class="terminal-382937951-r13" x="500.2" y="386" textLength="36.6" clip-path="url(#terminal-382937951-line-15)">&#160;↑&#160;</text><text class="terminal-382937951-r14" x="536.8" y="386" textLength="158.6" clip-path="url(#terminal-382937951-line-15)">&#160;Scroll&#160;Logs&#160;</text><text class="terminal-382937951-r13" x="695.4" y="386" textLength="36.6" clip-path="url(#terminal-382937951-line-15)">&#160;↓&#160;</text><text class="terminal-382937951-r14" x="732" y="386" textLength="158.6" clip-path="url(#terminal-382937951-line-15)">&#160;Scroll&#160;Logs&#160;</text><text class="terminal-382937951-r13" x="890.6" y="386" textLength="36.6" clip-path="url(#terminal-382937951-line-15)">&#160;Q&#160;</text><text class="terminal-382937951-r14" x="927.2" y="386" textLength="73.2" clip-path="url(#terminal-382937951-line-15)">&#160;Quit&#160;</text>
    </g>
    </g>
</svg>
