<svg class="rich-terminal" viewBox="0 0 2349 635.5999999999999" xmlns="http://www.w3.org/2000/svg">
    <!-- Generated with Rich https://www.textualize.io -->
    <style>

    @font-face {
        font-family: "Fira Code";
        src: local("FiraCode-Regular"),
                url("https://cdnjs.cloudflare.com/ajax/libs/firacode/6.2.0/woff2/FiraCode-Regular.woff2") format("woff2"),
                url("https://cdnjs.cloudflare.com/ajax/libs/firacode/6.2.0/woff/FiraCode-Regular.woff") format("woff");
        font-style: normal;
        font-weight: 400;
    }
    @font-face {
        font-family: "Fira Code";
        src: local("FiraCode-Bold"),
                url("https://cdnjs.cloudflare.com/ajax/libs/firacode/6.2.0/woff2/FiraCode-Bold.woff2") format("woff2"),
                url("https://cdnjs.cloudflare.com/ajax/libs/firacode/6.2.0/woff/FiraCode-Bold.woff") format("woff");
        font-style: bold;
        font-weight: 700;
    }

    .terminal-1850963065-matrix {
        font-family: Fira Code, monospace;
        font-size: 20px;
        line-height: 24.4px;
        font-variant-east-asian: full-width;
    }

    .terminal-1850963065-title {
        font-size: 18px;
        font-weight: bold;
        font-family: arial;
    }

    .terminal-1850963065-r1 { fill: #c5c8c6 }
.terminal-1850963065-r2 { fill: #e2e3e3 }
.terminal-1850963065-r3 { fill: #96989b }
.terminal-1850963065-r4 { fill: #c7c9ca }
.terminal-1850963065-r5 { fill: #777a7e }
.terminal-1850963065-r6 { fill: #e2e3e3;font-weight: bold }
.terminal-1850963065-r7 { fill: #4c5055 }
.terminal-1850963065-r8 { fill: #0178d4 }
.terminal-1850963065-r9 { fill: #e1e1e1;font-weight: bold }
.terminal-1850963065-r10 { fill: #68a0b3;font-weight: bold }
.terminal-1850963065-r11 { fill: #e1e1e1 }
.terminal-1850963065-r12 { fill: #00823d;font-weight: bold }
.terminal-1850963065-r13 { fill: #565c62 }
.terminal-1850963065-r14 { fill: #98a84b }
.terminal-1850963065-r15 { fill: #333b42 }
.terminal-1850963065-r16 { fill: #dde6ed;font-weight: bold }
.terminal-1850963065-r17 { fill: #dee5ea }
    </style>

    <defs>
    <clipPath id="terminal-1850963065-clip-terminal">
      <rect x="0" y="0" width="2329.2" height="584.5999999999999" />
    </clipPath>
    <clipPath id="terminal-1850963065-line-0">
    <rect x="0" y="1.5" width="2330.2" height="24.65"/>
            </clipPath>
<clipPath id="terminal-1850963065-line-1">
    <rect x="0" y="25.9" width="2330.2" height="24.65"/>
            </clipPath>
<clipPath id="terminal-1850963065-line-2">
    <rect x="0" y="50.3" width="2330.2" height="24.65"/>
            </clipPath>
<clipPath id="terminal-1850963065-line-3">
    <rect x="0" y="74.7" width="2330.2" height="24.65"/>
            </clipPath>
<clipPath id="terminal-1850963065-line-4">
    <rect x="0" y="99.1" width="2330.2" height="24.65"/>
            </clipPath>
<clipPath id="terminal-1850963065-line-5">
    <rect x="0" y="123.5" width="2330.2" height="24.65"/>
            </clipPath>
<clipPath id="terminal-1850963065-line-6">
    <rect x="0" y="147.9" width="2330.2" height="24.65"/>
            </clipPath>
<clipPath id="terminal-1850963065-line-7">
    <rect x="0" y="172.3" width="2330.2" height="24.65"/>
            </clipPath>
<clipPath id="terminal-1850963065-line-8">
    <rect x="0" y="196.7" width="2330.2" height="24.65"/>
            </clipPath>
<clipPath id="terminal-1850963065-line-9">
    <rect x="0" y="221.1" width="2330.2" height="24.65"/>
            </clipPath>
<clipPath id="terminal-1850963065-line-10">
    <rect x="0" y="245.5" width="2330.2" height="24.65"/>
            </clipPath>
<clipPath id="terminal-1850963065-line-11">
    <rect x="0" y="269.9" width="2330.2" height="24.65"/>
            </clipPath>
<clipPath id="terminal-1850963065-line-12">
    <rect x="0" y="294.3" width="2330.2" height="24.65"/>
            </clipPath>
<clipPath id="terminal-1850963065-line-13">
    <rect x="0" y="318.7" width="2330.2" height="24.65"/>
            </clipPath>
<clipPath id="terminal-1850963065-line-14">
    <rect x="0" y="343.1" width="2330.2" height="24.65"/>
            </clipPath>
<clipPath id="terminal-1850963065-line-15">
    <rect x="0" y="367.5" width="2330.2" height="24.65"/>
            </clipPath>
<clipPath id="terminal-1850963065-line-16">
    <rect x="0" y="391.9" width="2330.2" height="24.65"/>
            </clipPath>
<clipPath id="terminal-1850963065-line-17">
    <rect x="0" y="416.3" width="2330.2" height="24.65"/>
            </clipPath>
<clipPath id="terminal-1850963065-line-18">
    <rect x="0" y="440.7" width="2330.2" height="24.65"/>
            </clipPath>
<clipPath id="terminal-1850963065-line-19">
    <rect x="0" y="465.1" width="2330.2" height="24.65"/>
            </clipPath>
<clipPath id="terminal-1850963065-line-20">
    <rect x="0" y="489.5" width="2330.2" height="24.65"/>
            </clipPath>
<clipPath id="terminal-1850963065-line-21">
    <rect x="0" y="513.9" width="2330.2" height="24.65"/>
            </clipPath>
<clipPath id="terminal-1850963065-line-22">
    <rect x="0" y="538.3" width="2330.2" height="24.65"/>
            </clipPath>
    </defs>

    <rect fill="#292929" stroke="rgba(255,255,255,0.35)" stroke-width="1" x="1" y="1" width="2347" height="633.6" rx="8"/><text class="terminal-1850963065-title" fill="#c5c8c6" text-anchor="middle" x="1173" y="27">AMD&#160;GPU&#160;Stats</text>
            <g transform="translate(26,22)">
            <circle cx="0" cy="0" r="7" fill="#ff5f57"/>
            <circle cx="22" cy="0" r="7" fill="#febc2e"/>
            <circle cx="44" cy="0" r="7" fill="#28c840"/>
            </g>
        
    <g transform="translate(9, 41)" clip-path="url(#terminal-1850963065-clip-terminal)">
    <rect fill="#24292f" x="0" y="1.5" width="12.2" height="24.65" shape-rendering="crispEdges"/><rect fill="#24292f" x="12.2" y="1.5" width="12.2" height="24.65" shape-rendering="crispEdges"/><rect fill="#24292f" x="24.4" y="1.5" width="61" height="24.65" shape-rendering="crispEdges"/><rect fill="#24292f" x="85.4" y="1.5" width="12.2" height="24.65" shape-rendering="crispEdges"/><rect fill="#24292f" x="97.6" y="1.5" width="927.2" height="24.65" shape-rendering="crispEdges"/><rect fill="#24292f" x="1024.8" y="1.5" width="195.2" height="24.65" shape-rendering="crispEdges"/><rect fill="#24292f" x="1220" y="1.5" width="48.8" height="24.65" shape-rendering="crispEdges"/><rect fill="#24292f" x="1268.8" y="1.5" width="939.4" height="24.65" shape-rendering="crispEdges"/><rect fill="#2c3137" x="2208.2" y="1.5" width="12.2" height="24.65" shape-rendering="crispEdges"/><rect fill="#2c3137" x="2220.4" y="1.5" width="0" height="24.65" shape-rendering="crispEdges"/><rect fill="#2c3137" x="2220.4" y="1.5" width="97.6" height="24.65" shape-rendering="crispEdges"/><rect fill="#2c3137" x="2318" y="1.5" width="12.2" height="24.65" shape-rendering="crispEdges"/><rect fill="#24292f" x="0" y="25.9" width="97.6" height="24.65" shape-rendering="crispEdges"/><rect fill="#24292f" x="97.6" y="25.9" width="109.8" height="24.65" shape-rendering="crispEdges"/><rect fill="#24292f" x="207.4" y="25.9" width="85.4" height="24.65" shape-rendering="crispEdges"/><rect fill="#24292f" x="292.8" y="25.9" width="2037.4" height="24.65" shape-rendering="crispEdges"/><rect fill="#24292f" x="0" y="50.3" width="24.4" height="24.65" shape-rendering="crispEdges"/><rect fill="#24292f" x="24.4" y="50.3" width="61" height="24.65" shape-rendering="crispEdges"/><rect fill="#24292f" x="85.4" y="50.3" width="12.2" height="24.65" shape-rendering="crispEdges"/><rect fill="#24292f" x="97.6" y="50.3" width="24.4" height="24.65" shape-rendering="crispEdges"/><rect fill="#24292f" x="122" y="50.3" width="73.2" height="24.65" shape-rendering="crispEdges"/><rect fill="#24292f" x="195.2" y="50.3" width="12.2" height="24.65" shape-rendering="crispEdges"/><rect fill="#24292f" x="207.4" y="50.3" width="24.4" height="24.65" shape-rendering="crispEdges"/><rect fill="#24292f" x="231.8" y="50.3" width="48.8" height="24.65" shape-rendering="crispEdges"/><rect fill="#24292f" x="280.6" y="50.3" width="12.2" height="24.65" shape-rendering="crispEdges"/><rect fill="#24292f" x="292.8" y="50.3" width="2037.4" height="24.65" shape-rendering="crispEdges"/><rect fill="#24292f" x="0" y="74.7" width="219.6" height="24.65" shape-rendering="crispEdges"/><rect fill="#24292f" x="219.6" y="74.7" width="12.2" height="24.65" shape-rendering="crispEdges"/><rect fill="#24292f" x="231.8" y="74.7" width="48.8" height="24.65" shape-rendering="crispEdges"/><rect fill="#24292f" x="280.6" y="74.7" width="12.2" height="24.65" shape-rendering="crispEdges"/><rect fill="#24292f" x="292.8" y="74.7" width="2037.4" height="24.65" shape-rendering="crispEdges"/><rect fill="#24292f" x="0" y="99.1" width="12.2" height="24.65" shape-rendering="crispEdges"/><rect fill="#1e1e1e" x="12.2" y="99.1" width="12.2" height="24.65" shape-rendering="crispEdges"/><rect fill="#1e1e1e" x="24.4" y="99.1" width="48.8" height="24.65" shape-rendering="crispEdges"/><rect fill="#1e1e1e" x="73.2" y="99.1" width="12.2" height="24.65" shape-rendering="crispEdges"/><rect fill="#1e1e1e" x="85.4" y="99.1" width="24.4" height="24.65" shape-rendering="crispEdges"/><rect fill="#1e1e1e" x="109.8" y="99.1" width="12.2" height="24.65" shape-rendering="crispEdges"/><rect fill="#1e1e1e" x="122" y="99.1" width="24.4" height="24.65" shape-rendering="crispEdges"/><rect fill="#1e1e1e" x="146.4" y="99.1" width="12.2" height="24.65" shape-rendering="crispEdges"/><rect fill="#1e1e1e" x="158.6" y="99.1" width="97.6" height="24.65" shape-rendering="crispEdges"/><rect fill="#1e1e1e" x="256.2" y="99.1" width="12.2" height="24.65" shape-rendering="crispEdges"/><rect fill="#1e1e1e" x="268.4" y="99.1" width="341.6" height="24.65" shape-rendering="crispEdges"/><rect fill="#1e1e1e" x="610" y="99.1" width="1683.6" height="24.65" shape-rendering="crispEdges"/><rect fill="#1e1e1e" x="2293.6" y="99.1" width="24.4" height="24.65" shape-rendering="crispEdges"/><rect fill="#24292f" x="2318" y="99.1" width="12.2" height="24.65" shape-rendering="crispEdges"/><rect fill="#24292f" x="0" y="123.5" width="12.2" height="24.65" shape-rendering="crispEdges"/><rect fill="#1e1e1e" x="12.2" y="123.5" width="12.2" height="24.65" shape-rendering="crispEdges"/><rect fill="#1e1e1e" x="24.4" y="123.5" width="48.8" height="24.65" shape-rendering="crispEdges"/><rect fill="#1e1e1e" x="73.2" y="123.5" width="12.2" height="24.65" shape-rendering="crispEdges"/><rect fill="#1e1e1e" x="85.4" y="123.5" width="24.4" height="24.65" shape-rendering="crispEdges"/><rect fill="#1e1e1e" x="109.8" y="123.5" width="12.2" height="24.65" shape-rendering="crispEdges"/><rect fill="#1e1e1e" x="122" y="123.5" width="24.4" height="24.65" shape-rendering="crispEdges"/><rect fill="#1e1e1e" x="146.4" y="123.5" width="12.2" height="24.65" shape-rendering="crispEdges"/><rect fill="#1e1e1e" x="158.6" y="123.5" width="97.6" height="24.65" shape-rendering="crispEdges"/><rect fill="#1e1e1e" x="256.2" y="123.5" width="12.2" height="24.65" shape-rendering="crispEdges"/><rect fill="#1e1e1e" x="268.4" y="123.5" width="170.8" height="24.65" shape-rendering="crispEdges"/><rect fill="#1e1e1e" x="439.2" y="123.5" width="1854.4" height="24.65" shape-rendering="crispEdges"/><rect fill="#14191f" x="2293.6" y="123.5" width="24.4" height="24.65" shape-rendering="crispEdges"/><rect fill="#24292f" x="2318" y="123.5" width="12.2" height="24.65" shape-rendering="crispEdges"/><rect fill="#24292f" x="0" y="147.9" width="12.2" height="24.65" shape-rendering="crispEdges"/><rect fill="#1e1e1e" x="12.2" y="147.9" width="48.8" height="24.65" shape-rendering="crispEdges"/><rect fill="#1e1e1e" x="61" y="147.9" width="73.2" height="24.65" shape-rendering="crispEdges"/><rect fill="#1e1e1e" x="134.2" y="147.9" width="2159.4" height="24.65" shape-rendering="crispEdges"/><rect fill="#14191f" x="2293.6" y="147.9" width="24.4" height="24.65" shape-rendering="crispEdges"/><rect fill="#24292f" x="2318" y="147.9" width="12.2" height="24.65" shape-rendering="crispEdges"/><rect fill="#24292f" x="0" y="172.3" width="12.2" height="24.65" shape-rendering="crispEdges"/><rect fill="#1e1e1e" x="12.2" y="172.3" width="48.8" height="24.65" shape-rendering="crispEdges"/><rect fill="#1e1e1e" x="61" y="172.3" width="146.4" height="24.65" shape-rendering="crispEdges"/><rect fill="#1e1e1e" x="207.4" y="172.3" width="2086.2" height="24.65" shape-rendering="crispEdges"/><rect fill="#14191f" x="2293.6" y="172.3" width="24.4" height="24.65" shape-rendering="crispEdges"/><rect fill="#24292f" x="2318" y="172.3" width="12.2" height="24.65" shape-rendering="crispEdges"/><rect fill="#24292f" x="0" y="196.7" width="12.2" height="24.65" shape-rendering="crispEdges"/><rect fill="#1e1e1e" x="12.2" y="196.7" width="48.8" height="24.65" shape-rendering="crispEdges"/><rect fill="#1e1e1e" x="61" y="196.7" width="170.8" height="24.65" shape-rendering="crispEdges"/><rect fill="#1e1e1e" x="231.8" y="196.7" width="2061.8" height="24.65" shape-rendering="crispEdges"/><rect fill="#14191f" x="2293.6" y="196.7" width="24.4" height="24.65" shape-rendering="crispEdges"/><rect fill="#24292f" x="2318" y="196.7" width="12.2" height="24.65" shape-rendering="crispEdges"/><rect fill="#24292f" x="0" y="221.1" width="12.2" height="24.65" shape-rendering="crispEdges"/><rect fill="#1e1e1e" x="12.2" y="221.1" width="48.8" height="24.65" shape-rendering="crispEdges"/><rect fill="#1e1e1e" x="61" y="221.1" width="158.6" height="24.65" shape-rendering="crispEdges"/><rect fill="#1e1e1e" x="219.6" y="221.1" width="2074" height="24.65" shape-rendering="crispEdges"/><rect fill="#14191f" x="2293.6" y="221.1" width="24.4" height="24.65" shape-rendering="crispEdges"/><rect fill="#24292f" x="2318" y="221.1" width="12.2" height="24.65" shape-rendering="crispEdges"/><rect fill="#24292f" x="0" y="245.5" width="12.2" height="24.65" shape-rendering="crispEdges"/><rect fill="#1e1e1e" x="12.2" y="245.5" width="48.8" height="24.65" shape-rendering="crispEdges"/><rect fill="#1e1e1e" x="61" y="245.5" width="109.8" height="24.65" shape-rendering="crispEdges"/><rect fill="#1e1e1e" x="170.8" y="245.5" width="2122.8" height="24.65" shape-rendering="crispEdges"/><rect fill="#14191f" x="2293.6" y="245.5" width="24.4" height="24.65" shape-rendering="crispEdges"/><rect fill="#24292f" x="2318" y="245.5" width="12.2" height="24.65" shape-rendering="crispEdges"/><rect fill="#24292f" x="0" y="269.9" width="12.2" height="24.65" shape-rendering="crispEdges"/><rect fill="#1e1e1e" x="12.2" y="269.9" width="48.8" height="24.65" shape-rendering="crispEdges"/><rect fill="#1e1e1e" x="61" y="269.9" width="85.4" height="24.65" shape-rendering="crispEdges"/><rect fill="#1e1e1e" x="146.4" y="269.9" width="2147.2" height="24.65" shape-rendering="crispEdges"/><rect fill="#14191f" x="2293.6" y="269.9" width="24.4" height="24.65" shape-rendering="crispEdges"/><rect fill="#24292f" x="2318" y="269.9" width="12.2" height="24.65" shape-rendering="crispEdges"/><rect fill="#24292f" x="0" y="294.3" width="12.2" height="24.65" shape-rendering="crispEdges"/><rect fill="#1e1e1e" x="12.2" y="294.3" width="48.8" height="24.65" shape-rendering="crispEdges"/><rect fill="#1e1e1e" x="61" y="294.3" width="85.4" height="24.65" shape-rendering="crispEdges"/><rect fill="#1e1e1e" x="146.4" y="294.3" width="2147.2" height="24.65" shape-rendering="crispEdges"/><rect fill="#14191f" x="2293.6" y="294.3" width="24.4" height="24.65" shape-rendering="crispEdges"/><rect fill="#24292f" x="2318" y="294.3" width="12.2" height="24.65" shape-rendering="crispEdges"/><rect fill="#24292f" x="0" y="318.7" width="12.2" height="24.65" shape-rendering="crispEdges"/><rect fill="#1e1e1e" x="12.2" y="318.7" width="48.8" height="24.65" shape-rendering="crispEdges"/><rect fill="#1e1e1e" x="61" y="318.7" width="109.8" height="24.65" shape-rendering="crispEdges"/><rect fill="#1e1e1e" x="170.8" y="318.7" width="2122.8" height="24.65" shape-rendering="crispEdges"/><rect fill="#14191f" x="2293.6" y="318.7" width="24.4" height="24.65" shape-rendering="crispEdges"/><rect fill="#24292f" x="2318" y="318.7" width="12.2" height="24.65" shape-rendering="crispEdges"/><rect fill="#24292f" x="0" y="343.1" width="12.2" height="24.65" shape-rendering="crispEdges"/><rect fill="#1e1e1e" x="12.2" y="343.1" width="48.8" height="24.65" shape-rendering="crispEdges"/><rect fill="#1e1e1e" x="61" y="343.1" width="146.4" height="24.65" shape-rendering="crispEdges"/><rect fill="#1e1e1e" x="207.4" y="343.1" width="2086.2" height="24.65" shape-rendering="crispEdges"/><rect fill="#14191f" x="2293.6" y="343.1" width="24.4" height="24.65" shape-rendering="crispEdges"/><rect fill="#24292f" x="2318" y="343.1" width="12.2" height="24.65" shape-rendering="crispEdges"/><rect fill="#24292f" x="0" y="367.5" width="12.2" height="24.65" shape-rendering="crispEdges"/><rect fill="#1e1e1e" x="12.2" y="367.5" width="48.8" height="24.65" shape-rendering="crispEdges"/><rect fill="#1e1e1e" x="61" y="367.5" width="109.8" height="24.65" shape-rendering="crispEdges"/><rect fill="#1e1e1e" x="170.8" y="367.5" width="2122.8" height="24.65" shape-rendering="crispEdges"/><rect fill="#14191f" x="2293.6" y="367.5" width="24.4" height="24.65" shape-rendering="crispEdges"/><rect fill="#24292f" x="2318" y="367.5" width="12.2" height="24.65" shape-rendering="crispEdges"/><rect fill="#24292f" x="0" y="391.9" width="12.2" height="24.65" shape-rendering="crispEdges"/><rect fill="#1e1e1e" x="12.2" y="391.9" width="48.8" height="24.65" shape-rendering="crispEdges"/><rect fill="#1e1e1e" x="61" y="391.9" width="134.2" height="24.65" shape-rendering="crispEdges"/><rect fill="#1e1e1e" x="195.2" y="391.9" width="2098.4" height="24.65" shape-rendering="crispEdges"/><rect fill="#14191f" x="2293.6" y="391.9" width="24.4" height="24.65" shape-rendering="crispEdges"/><rect fill="#24292f" x="2318" y="391.9" width="12.2" height="24.65" shape-rendering="crispEdges"/><rect fill="#24292f" x="0" y="416.3" width="12.2" height="24.65" shape-rendering="crispEdges"/><rect fill="#1e1e1e" x="12.2" y="416.3" width="48.8" height="24.65" shape-rendering="crispEdges"/><rect fill="#1e1e1e" x="61" y="416.3" width="183" height="24.65" shape-rendering="crispEdges"/><rect fill="#1e1e1e" x="244" y="416.3" width="2049.6" height="24.65" shape-rendering="crispEdges"/><rect fill="#14191f" x="2293.6" y="416.3" width="24.4" height="24.65" shape-rendering="crispEdges"/><rect fill="#24292f" x="2318" y="416.3" width="12.2" height="24.65" shape-rendering="crispEdges"/><rect fill="#24292f" x="0" y="440.7" width="12.2" height="24.65" shape-rendering="crispEdges"/><rect fill="#1e1e1e" x="12.2" y="440.7" width="48.8" height="24.65" shape-rendering="crispEdges"/><rect fill="#1e1e1e" x="61" y="440.7" width="158.6" height="24.65" shape-rendering="crispEdges"/><rect fill="#1e1e1e" x="219.6" y="440.7" width="2074" height="24.65" shape-rendering="crispEdges"/><rect fill="#14191f" x="2293.6" y="440.7" width="24.4" height="24.65" shape-rendering="crispEdges"/><rect fill="#24292f" x="2318" y="440.7" width="12.2" height="24.65" shape-rendering="crispEdges"/><rect fill="#24292f" x="0" y="465.1" width="12.2" height="24.65" shape-rendering="crispEdges"/><rect fill="#1e1e1e" x="12.2" y="465.1" width="12.2" height="24.65" shape-rendering="crispEdges"/><rect fill="#1e1e1e" x="24.4" y="465.1" width="48.8" height="24.65" shape-rendering="crispEdges"/><rect fill="#1e1e1e" x="73.2" y="465.1" width="12.2" height="24.65" shape-rendering="crispEdges"/><rect fill="#1e1e1e" x="85.4" y="465.1" width="24.4" height="24.65" shape-rendering="crispEdges"/><rect fill="#1e1e1e" x="109.8" y="465.1" width="12.2" height="24.65" shape-rendering="crispEdges"/><rect fill="#1e1e1e" x="122" y="465.1" width="24.4" height="24.65" shape-rendering="crispEdges"/><rect fill="#1e1e1e" x="146.4" y="465.1" width="12.2" height="24.65" shape-rendering="crispEdges"/><rect fill="#1e1e1e" x="158.6" y="465.1" width="97.6" height="24.65" shape-rendering="crispEdges"/><rect fill="#1e1e1e" x="256.2" y="465.1" width="12.2" height="24.65" shape-rendering="crispEdges"/><rect fill="#1e1e1e" x="268.4" y="465.1" width="183" height="24.65" shape-rendering="crispEdges"/><rect fill="#1e1e1e" x="451.4" y="465.1" width="85.4" height="24.65" shape-rendering="crispEdges"/><rect fill="#1e1e1e" x="536.8" y="465.1" width="158.6" height="24.65" shape-rendering="crispEdges"/><rect fill="#1e1e1e" x="695.4" y="465.1" width="512.4" height="24.65" shape-rendering="crispEdges"/><rect fill="#1e1e1e" x="1207.8" y="465.1" width="1085.8" height="24.65" shape-rendering="crispEdges"/><rect fill="#14191f" x="2293.6" y="465.1" width="24.4" height="24.65" shape-rendering="crispEdges"/><rect fill="#24292f" x="2318" y="465.1" width="12.2" height="24.65" shape-rendering="crispEdges"/><rect fill="#24292f" x="0" y="489.5" width="12.2" height="24.65" shape-rendering="crispEdges"/><rect fill="#1e1e1e" x="12.2" y="489.5" width="2281.4" height="24.65" shape-rendering="crispEdges"/><rect fill="#1e1e1e" x="2293.6" y="489.5" width="24.4" height="24.65" shape-rendering="crispEdges"/><rect fill="#24292f" x="2318" y="489.5" width="12.2" height="24.65" shape-rendering="crispEdges"/><rect fill="#24292f" x="0" y="513.9" width="12.2" height="24.65" shape-rendering="crispEdges"/><rect fill="#1e1e1e" x="12.2" y="513.9" width="2281.4" height="24.65" shape-rendering="crispEdges"/><rect fill="#14191f" x="2293.6" y="513.9" width="24.4" height="24.65" shape-rendering="crispEdges"/><rect fill="#24292f" x="2318" y="513.9" width="12.2" height="24.65" shape-rendering="crispEdges"/><rect fill="#24292f" x="0" y="538.3" width="2330.2" height="24.65" shape-rendering="crispEdges"/><rect fill="#004578" x="0" y="562.7" width="36.6" height="24.65" shape-rendering="crispEdges"/><rect fill="#073b61" x="36.6" y="562.7" width="97.6" height="24.65" shape-rendering="crispEdges"/><rect fill="#004578" x="134.2" y="562.7" width="36.6" height="24.65" shape-rendering="crispEdges"/><rect fill="#073b61" x="170.8" y="562.7" width="146.4" height="24.65" shape-rendering="crispEdges"/><rect fill="#004578" x="317.2" y="562.7" width="36.6" height="24.65" shape-rendering="crispEdges"/><rect fill="#073b61" x="353.8" y="562.7" width="146.4" height="24.65" shape-rendering="crispEdges"/><rect fill="#004578" x="500.2" y="562.7" width="36.6" height="24.65" shape-rendering="crispEdges"/><rect fill="#073b61" x="536.8" y="562.7" width="158.6" height="24.65" shape-rendering="crispEdges"/><rect fill="#004578" x="695.4" y="562.7" width="36.6" height="24.65" shape-rendering="crispEdges"/><rect fill="#073b61" x="732" y="562.7" width="158.6" height="24.65" shape-rendering="crispEdges"/><rect fill="#004578" x="890.6" y="562.7" width="36.6" height="24.65" shape-rendering="crispEdges"/><rect fill="#073b61" x="927.2" y="562.7" width="73.2" height="24.65" shape-rendering="crispEdges"/><rect fill="#073b61" x="1000.4" y="562.7" width="1329.8" height="24.65" shape-rendering="crispEdges"/>
    <g class="terminal-1850963065-matrix">
    <text class="terminal-1850963065-r2" x="12.2" y="20" textLength="12.2" clip-path="url(#terminal-1850963065-line-0)">⭘</text><text class="terminal-1850963065-r2" x="1024.8" y="20" textLength="195.2" clip-path="url(#terminal-1850963065-line-0)">AMD&#160;GPU&#160;Stats&#160;—&#160;</text><text class="terminal-1850963065-r3" x="1220" y="20" textLength="48.8" clip-path="url(#terminal-1850963065-line-0)">logs</text><text class="terminal-1850963065-r4" x="2220.4" y="20" textLength="97.6" clip-path="url(#terminal-1850963065-line-0)">22:56:06</text><text class="terminal-1850963065-r1" x="2330.2" y="20" textLength="12.2" clip-path="url(#terminal-1850963065-line-0)">
</text><text class="terminal-1850963065-r1" x="2330.2" y="44.4" textLength="12.2" clip-path="url(#terminal-1850963065-line-1)">
</text><text class="terminal-1850963065-r5" x="24.4" y="68.8" textLength="61" clip-path="url(#terminal-1850963065-line-2)">Stats</text><text class="terminal-1850963065-r5" x="122" y="68.8" textLength="73.2" clip-path="url(#terminal-1850963065-line-2)">Graphs</text><text class="terminal-1850963065-r6" x="231.8" y="68.8" textLength="48.8" clip-path="url(#terminal-1850963065-line-2)">Logs</text><text class="terminal-1850963065-r1" x="2330.2" y="68.8" textLength="12.2" clip-path="url(#terminal-1850963065-line-2)">
</text><text class="terminal-1850963065-r7" x="0" y="93.2" textLength="219.6" clip-path="url(#terminal-1850963065-line-3)">━━━━━━━━━━━━━━━━━━</text><text class="terminal-1850963065-r7" x="219.6" y="93.2" textLength="12.2" clip-path="url(#terminal-1850963065-line-3)">╸</text><text class="terminal-1850963065-r8" x="231.8" y="93.2" textLength="48.8" clip-path="url(#terminal-1850963065-line-3)">━━━━</text><text class="terminal-1850963065-r7" x="280.6" y="93.2" textLength="12.2" clip-path="url(#terminal-1850963065-line-3)">╺</text><text class="terminal-1850963065-r7" x="292.8" y="93.2" textLength="2037.4" clip-path="url(#terminal-1850963065-line-3)">━━━━━━━━━━━━━━━━━━━━━━━━━━━━━━━━━━━━━━━━━━━━━━━━━━━━━━━━━━━━━━━━━━━━━━━━━━━━━━━━━━━━━━━━━━━━━━━━━━━━━━━━━━━━━━━━━━━━━━━━━━━━━━━━━━━━━━━━━━━━━━━━━━━━━━━━━━━━━━━━━━━━━━━</text><text class="terminal-1850963065-r1" x="2330.2" y="93.2" textLength="12.2" clip-path="url(#terminal-1850963065-line-3)">
</text><text class="terminal-1850963065-r9" x="12.2" y="117.6" textLength="12.2" clip-path="url(#terminal-1850963065-line-4)">[</text><text class="terminal-1850963065-r10" x="24.4" y="117.6" textLength="48.8" clip-path="url(#terminal-1850963065-line-4)">2023</text><text class="terminal-1850963065-r11" x="73.2" y="117.6" textLength="12.2" clip-path="url(#terminal-1850963065-line-4)">-</text><text class="terminal-1850963065-r10" x="85.4" y="117.6" textLength="24.4" clip-path="url(#terminal-1850963065-line-4)">08</text><text class="terminal-1850963065-r11" x="109.8" y="117.6" textLength="12.2" clip-path="url(#terminal-1850963065-line-4)">-</text><text class="terminal-1850963065-r10" x="122" y="117.6" textLength="24.4" clip-path="url(#terminal-1850963065-line-4)">05</text><text class="terminal-1850963065-r12" x="158.6" y="117.6" textLength="97.6" clip-path="url(#terminal-1850963065-line-4)">22:55:55</text><text class="terminal-1850963065-r9" x="256.2" y="117.6" textLength="12.2" clip-path="url(#terminal-1850963065-line-4)">]</text><text class="terminal-1850963065-r11" x="268.4" y="117.6" textLength="341.6" clip-path="url(#terminal-1850963065-line-4)">&#160;App&#160;started,&#160;logging&#160;begin!</text><text class="terminal-1850963065-r13" x="2293.6" y="117.6" textLength="24.4" clip-path="url(#terminal-1850963065-line-4)">▄▄</text><text class="terminal-1850963065-r1" x="2330.2" y="117.6" textLength="12.2" clip-path="url(#terminal-1850963065-line-4)">
</text><text class="terminal-1850963065-r9" x="12.2" y="142" textLength="12.2" clip-path="url(#terminal-1850963065-line-5)">[</text><text class="terminal-1850963065-r10" x="24.4" y="142" textLength="48.8" clip-path="url(#terminal-1850963065-line-5)">2023</text><text class="terminal-1850963065-r11" x="73.2" y="142" textLength="12.2" clip-path="url(#terminal-1850963065-line-5)">-</text><text class="terminal-1850963065-r10" x="85.4" y="142" textLength="24.4" clip-path="url(#terminal-1850963065-line-5)">08</text><text class="terminal-1850963065-r11" x="109.8" y="142" textLength="12.2" clip-path="url(#terminal-1850963065-line-5)">-</text><text class="terminal-1850963065-r10" x="122" y="142" textLength="24.4" clip-path="url(#terminal-1850963065-line-5)">05</text><text class="terminal-1850963065-r12" x="158.6" y="142" textLength="97.6" clip-path="url(#terminal-1850963065-line-5)">22:55:55</text><text class="terminal-1850963065-r9" x="256.2" y="142" textLength="12.2" clip-path="url(#terminal-1850963065-line-5)">]</text><text class="terminal-1850963065-r11" x="268.4" y="142" textLength="170.8" clip-path="url(#terminal-1850963065-line-5)">&#160;Stat&#160;columns:</text><text class="terminal-1850963065-r1" x="2330.2" y="142" textLength="12.2" clip-path="url(#terminal-1850963065-line-5)">
</text><text class="terminal-1850963065-r11" x="12.2" y="166.4" textLength="48.8" clip-path="url(#terminal-1850963065-line-6)">&#160;&#160;-&#160;</text><text class="terminal-1850963065-r14" x="61" y="166.4" textLength="73.2" clip-path="url(#terminal-1850963065-line-6)">&#x27;Card&#x27;</text><text class="terminal-1850963065-r1" x="2330.2" y="166.4" textLength="12.2" clip-path="url(#terminal-1850963065-line-6)">
</text><text class="terminal-1850963065-r11" x="12.2" y="190.8" textLength="48.8" clip-path="url(#terminal-1850963065-line-7)">&#160;&#160;-&#160;</text><text class="terminal-1850963065-r14" x="61" y="190.8" textLength="146.4" clip-path="url(#terminal-1850963065-line-7)">&#x27;Core&#160;clock&#x27;</text><text class="terminal-1850963065-r1" x="2330.2" y="190.8" textLength="12.2" clip-path="url(#terminal-1850963065-line-7)">
</text><text class="terminal-1850963065-r11" x="12.2" y="215.2" textLength="48.8" clip-path="url(#terminal-1850963065-line-8)">&#160;&#160;-&#160;</text><text class="terminal-1850963065-r14" x="61" y="215.2" textLength="170.8" clip-path="url(#terminal-1850963065-line-8)">&#x27;Memory&#160;clock&#x27;</text><text class="terminal-1850963065-r1" x="2330.2" y="215.2" textLength="12.2" clip-path="url(#terminal-1850963065-line-8)">
</text><text class="terminal-1850963065-r11" x="12.2" y="239.6" textLength="48.8" clip-path="url(#terminal-1850963065-line-9)">&#160;&#160;-&#160;</text><text class="terminal-1850963065-r14" x="61" y="239.6" textLength="158.6" clip-path="url(#terminal-1850963065-line-9)">&#x27;Utilization&#x27;</text><text class="terminal-1850963065-r1" x="2330.2" y="239.6" textLength="12.2" clip-path="url(#terminal-1850963065-line-9)">
</text><text class="terminal-1850963065-r11" x="12.2" y="264" textLength="48.8" clip-path="url(#terminal-1850963065-line-10)">&#160;&#160;-&#160;</text><text class="terminal-1850963065-r14" x="61" y="264" textLength="109.8" clip-path="url(#terminal-1850963065-line-10)">&#x27;Voltage&#x27;</text><text class="terminal-1850963065-r1" x="2330.2" y="264" textLength="12.2" clip-path="url(#terminal-1850963065-line-10)">
</text><text class="terminal-1850963065-r11" x="12.2" y="288.4" textLength="48.8" clip-path="url(#terminal-1850963065-line-11)">&#160;&#160;-&#160;</text><text class="terminal-1850963065-r14" x="61" y="288.4" textLength="85.4" clip-path="url(#terminal-1850963065-line-11)">&#x27;Power&#x27;</text><text class="terminal-1850963065-r1" x="2330.2" y="288.4" textLength="12.2" clip-path="url(#terminal-1850963065-line-11)">
</text><text class="terminal-1850963065-r11" x="12.2" y="312.8" textLength="48.8" clip-path="url(#terminal-1850963065-line-12)">&#160;&#160;-&#160;</text><text class="terminal-1850963065-r14" x="61" y="312.8" textLength="85.4" clip-path="url(#terminal-1850963065-line-12)">&#x27;Limit&#x27;</text><text class="terminal-1850963065-r1" x="2330.2" y="312.8" textLength="12.2" clip-path="url(#terminal-1850963065-line-12)">
</text><text class="terminal-1850963065-r11" x="12.2" y="337.2" textLength="48.8" clip-path="url(#terminal-1850963065-line-13)">&#160;&#160;-&#160;</text><text class="terminal-1850963065-r14" x="61" y="337.2" textLength="109.8" clip-path="url(#terminal-1850963065-line-13)">&#x27;Default&#x27;</text><text class="terminal-1850963065-r1" x="2330.2" y="337.2" textLength="12.2" clip-path="url(#terminal-1850963065-line-13)">
</text><text class="terminal-1850963065-r11" x="12.2" y="361.6" textLength="48.8" clip-path="url(#terminal-1850963065-line-14)">&#160;&#160;-&#160;</text><text class="terminal-1850963065-r14" x="61" y="361.6" textLength="146.4" clip-path="url(#terminal-1850963065-line-14)">&#x27;Capability&#x27;</text><text class="terminal-1850963065-r1" x="2330.2" y="361.6" textLength="12.2" clip-path="url(#terminal-1850963065-line-14)">
</text><text class="terminal-1850963065-r11" x="12.2" y="386" textLength="48.8" clip-path="url(#terminal-1850963065-line-15)">&#160;&#160;-&#160;</text><text class="terminal-1850963065-r14" x="61" y="386" textLength="109.8" clip-path="url(#terminal-1850963065-line-15)">&#x27;Fan&#160;RPM&#x27;</text><text class="terminal-1850963065-r1" x="2330.2" y="386" textLength="12.2" clip-path="url(#terminal-1850963065-line-15)">
</text><text class="terminal-1850963065-r11" x="12.2" y="410.4" textLength="48.8" clip-path="url(#terminal-1850963065-line-16)">&#160;&#160;-&#160;</text><text class="terminal-1850963065-r14" x="61" y="410.4" textLength="134.2" clip-path="url(#terminal-1850963065-line-16)">&#x27;Edge&#160;temp&#x27;</text><text class="terminal-1850963065-r1" x="2330.2" y="410.4" textLength="12.2" clip-path="url(#terminal-1850963065-line-16)">
</text><text class="terminal-1850963065-r11" x="12.2" y="434.8" textLength="48.8" clip-path="url(#terminal-1850963065-line-17)">&#160;&#160;-&#160;</text><text class="terminal-1850963065-r14" x="61" y="434.8" textLength="183" clip-path="url(#terminal-1850963065-line-17)">&#x27;Junction&#160;temp&#x27;</text><text class="terminal-1850963065-r1" x="2330.2" y="434.8" textLength="12.2" clip-path="url(#terminal-1850963065-line-17)">
</text><text class="terminal-1850963065-r11" x="12.2" y="459.2" textLength="48.8" clip-path="url(#terminal-1850963065-line-18)">&#160;&#160;-&#160;</text><text class="terminal-1850963065-r14" x="61" y="459.2" textLength="158.6" clip-path="url(#terminal-1850963065-line-18)">&#x27;Memory&#160;temp&#x27;</text><text class="terminal-1850963065-r1" x="2330.2" y="459.2" textLength="12.2" clip-path="url(#terminal-1850963065-line-18)">
</text><text class="terminal-1850963065-r9" x="12.2" y="483.6" textLength="12.2" clip-path="url(#terminal-1850963065-line-19)">[</text><text class="terminal-1850963065-r10" x="24.4" y="483.6" textLength="48.8" clip-path="url(#terminal-1850963065-line-19)">2023</text><text class="terminal-1850963065-r11" x="73.2" y="483.6" textLength="12.2" clip-path="url(#terminal-1850963065-line-19)">-</text><text class="terminal-1850963065-r10" x="85.4" y="483.6" textLength="24.4" clip-path="url(#terminal-1850963065-line-19)">08</text><text class="terminal-1850963065-r11" x="109.8" y="483.6" textLength="12.2" clip-path="url(#terminal-1850963065-line-19)">-</text><text class="terminal-1850963065-r10" x="122" y="483.6" textLength="24.4" clip-path="url(#terminal-1850963065-line-19)">05</text><text class="terminal-1850963065-r12" x="158.6" y="483.6" textLength="97.6" clip-path="url(#terminal-1850963065-line-19)">22:55:55</text><text class="terminal-1850963065-r9" x="256.2" y="483.6" textLength="12.2" clip-path="url(#terminal-1850963065-line-19)">]</text><text class="terminal-1850963065-r11" x="268.4" y="483.6" textLength="183" clip-path="url(#terminal-1850963065-line-19)">&#160;Added&#160;row&#160;for&#160;</text><text class="terminal-1850963065-r14" x="451.4" y="483.6" textLength="85.4" clip-path="url(#terminal-1850963065-line-19)">&#x27;card0&#x27;</text><text class="terminal-1850963065-r11" x="536.8" y="483.6" textLength="158.6" clip-path="url(#terminal-1850963065-line-19)">,&#160;stats&#160;dir:&#160;</text><text class="terminal-1850963065-r14" x="695.4" y="483.6" textLength="512.4" clip-path="url(#terminal-1850963065-line-19)">&#x27;/sys/class/drm/card0/device/hwmon/hwmon3&#x27;</text><text class="terminal-1850963065-r1" x="2330.2" y="483.6" textLength="12.2" clip-path="url(#terminal-1850963065-line-19)">
</text><text class="terminal-1850963065-r13" x="2293.6" y="508" textLength="24.4" clip-path="url(#terminal-1850963065-line-20)">▀▀</text><text class="terminal-1850963065-r1" x="2330.2" y="508" textLength="12.2" clip-path="url(#terminal-1850963065-line-20)">
</text><text class="terminal-1850963065-r13" x="12.2" y="532.4" textLength="2281.4" clip-path="url(#terminal-1850963065-line-21)">▄▄▄▄▄▄▄▄▄▄▄▄▄▄▄▄▄▄▄▄▄▄▄▄▄▄▄▄▄▄▄▄▄▄▄▄▄▄▄▄▄▄▄▄▄▄▄▄▄▄▄▄▄▄▄▄▄▄▄▄▄▄▄▄▄▄▄▄▄▄▄▄▄▄▄▄▄▄▄▄▄▄▄▄▄▄▄▄▄▄▄▄▄▄▄▄▄▄▄▄▄▄▄▄▄▄▄▄▄▄▄▄▄▄▄▄▄▄▄▄▄▄▄▄▄▄▄▄▄▄▄▄▄▄▄▄▄▄▄▄▄▄▄▄▄▄▄▄▄▄▄▄▄▄▄▄▄▄▄▄▄▄▄▄▄▄▄▄▄▄▄▄▄▄▄▄▄▄▄▄▄▄▄▄▄▄▄</text><text class="terminal-1850963065-r1" x="2330.2" y="532.4" textLength="12.2" clip-path="url(#terminal-1850963065-line-21)">
</text><text class="terminal-1850963065-r15" x="0" y="556.8" textLength="2330.2" clip-path="url(#terminal-1850963065-line-22)">━━━━━━━━━━━━━━━━━━━━━━━━━━━━━━━━━━━━━━━━━━━━━━━━━━━━━━━━━━━━━━━━━━━━━━━━━━━━━━━━━━━━━━━━━━━━━━━━━━━━━━━━━━━━━━━━━━━━━━━━━━━━━━━━━━━━━━━━━━━━━━━━━━━━━━━━━━━━━━━━━━━━━━━━━━━━━━━━━━━━━━━━━━━━━━━</text><text class="terminal-1850963065-r1" x="2330.2" y="556.8" textLength="12.2" clip-path="url(#terminal-1850963065-line-22)">
</text><text class="terminal-1850963065-r16" x="0" y="581.2" textLength="36.6" clip-path="url(#terminal-1850963065-line-23)">&#160;C&#160;</text><text class="terminal-1850963065-r17" x="36.6" y="581.2" textLength="97.6" clip-path="url(#terminal-1850963065-line-23)">&#160;Colors&#160;</text><text class="terminal-1850963065-r16" x="134.2" y="581.2" textLength="36.6" clip-path="url(#terminal-1850963065-line-23)">&#160;T&#160;</text><text class="terminal-1850963065-r17" x="170.8" y="581.2" textLength="146.4" clip-path="url(#terminal-1850963065-line-23)">&#160;Tab&#160;switch&#160;</text><text class="terminal-1850963065-r16" x="317.2" y="581.2" textLength="36.6" clip-path="url(#terminal-1850963065-line-23)">&#160;S&#160;</text><text class="terminal-1850963065-r17" x="353.8" y="581.2" textLength="146.4" clip-path="url(#terminal-1850963065-line-23)">&#160;Screenshot&#160;</text><text class="terminal-1850963065-r16" x="500.2" y="581.2" textLength="36.6" clip-path="url(#terminal-1850963065-line-23)">&#160;↑&#160;</text><text class="terminal-1850963065-r17" x="536.8" y="581.2" textLength="158.6" clip-path="url(#terminal-1850963065-line-23)">&#160;Scroll&#160;Logs&#160;</text><text class="terminal-1850963065-r16" x="695.4" y="581.2" textLength="36.6" clip-path="url(#terminal-1850963065-line-23)">&#160;↓&#160;</text><text class="terminal-1850963065-r17" x="732" y="581.2" textLength="158.6" clip-path="url(#terminal-1850963065-line-23)">&#160;Scroll&#160;Logs&#160;</text><text class="terminal-1850963065-r16" x="890.6" y="581.2" textLength="36.6" clip-path="url(#terminal-1850963065-line-23)">&#160;Q&#160;</text><text class="terminal-1850963065-r17" x="927.2" y="581.2" textLength="73.2" clip-path="url(#terminal-1850963065-line-23)">&#160;Quit&#160;</text>
    </g>
    </g>
</svg>
