<svg class="rich-terminal" viewBox="0 0 2361 586.8" xmlns="http://www.w3.org/2000/svg">
    <!-- Generated with Rich https://www.textualize.io -->
    <style>

    @font-face {
        font-family: "Fira Code";
        src: local("FiraCode-Regular"),
                url("https://cdnjs.cloudflare.com/ajax/libs/firacode/6.2.0/woff2/FiraCode-Regular.woff2") format("woff2"),
                url("https://cdnjs.cloudflare.com/ajax/libs/firacode/6.2.0/woff/FiraCode-Regular.woff") format("woff");
        font-style: normal;
        font-weight: 400;
    }
    @font-face {
        font-family: "Fira Code";
        src: local("FiraCode-Bold"),
                url("https://cdnjs.cloudflare.com/ajax/libs/firacode/6.2.0/woff2/FiraCode-Bold.woff2") format("woff2"),
                url("https://cdnjs.cloudflare.com/ajax/libs/firacode/6.2.0/woff/FiraCode-Bold.woff") format("woff");
        font-style: bold;
        font-weight: 700;
    }

    .terminal-3030827708-matrix {
        font-family: Fira Code, monospace;
        font-size: 20px;
        line-height: 24.4px;
        font-variant-east-asian: full-width;
    }

    .terminal-3030827708-title {
        font-size: 18px;
        font-weight: bold;
        font-family: arial;
    }

    .terminal-3030827708-r1 { fill: #c5c8c6 }
.terminal-3030827708-r2 { fill: #e2e3e3 }
.terminal-3030827708-r3 { fill: #96989b }
.terminal-3030827708-r4 { fill: #c7c9ca }
.terminal-3030827708-r5 { fill: #e2e3e3;font-weight: bold }
.terminal-3030827708-r6 { fill: #777a7e }
.terminal-3030827708-r7 { fill: #4c5055 }
.terminal-3030827708-r8 { fill: #0178d4 }
.terminal-3030827708-r9 { fill: #dde6ed;font-weight: bold }
.terminal-3030827708-r10 { fill: #dde6ed;font-weight: bold;font-style: italic; }
.terminal-3030827708-r11 { fill: #dde6ed }
.terminal-3030827708-r12 { fill: #211505 }
.terminal-3030827708-r13 { fill: #e1e3e5 }
.terminal-3030827708-r14 { fill: #333b42 }
.terminal-3030827708-r15 { fill: #dee5ea }
    </style>

    <defs>
    <clipPath id="terminal-3030827708-clip-terminal">
      <rect x="0" y="0" width="2341.3999999999996" height="535.8" />
    </clipPath>
    <clipPath id="terminal-3030827708-line-0">
    <rect x="0" y="1.5" width="2342.4" height="24.65"/>
            </clipPath>
<clipPath id="terminal-3030827708-line-1">
    <rect x="0" y="25.9" width="2342.4" height="24.65"/>
            </clipPath>
<clipPath id="terminal-3030827708-line-2">
    <rect x="0" y="50.3" width="2342.4" height="24.65"/>
            </clipPath>
<clipPath id="terminal-3030827708-line-3">
    <rect x="0" y="74.7" width="2342.4" height="24.65"/>
            </clipPath>
<clipPath id="terminal-3030827708-line-4">
    <rect x="0" y="99.1" width="2342.4" height="24.65"/>
            </clipPath>
<clipPath id="terminal-3030827708-line-5">
    <rect x="0" y="123.5" width="2342.4" height="24.65"/>
            </clipPath>
<clipPath id="terminal-3030827708-line-6">
    <rect x="0" y="147.9" width="2342.4" height="24.65"/>
            </clipPath>
<clipPath id="terminal-3030827708-line-7">
    <rect x="0" y="172.3" width="2342.4" height="24.65"/>
            </clipPath>
<clipPath id="terminal-3030827708-line-8">
    <rect x="0" y="196.7" width="2342.4" height="24.65"/>
            </clipPath>
<clipPath id="terminal-3030827708-line-9">
    <rect x="0" y="221.1" width="2342.4" height="24.65"/>
            </clipPath>
<clipPath id="terminal-3030827708-line-10">
    <rect x="0" y="245.5" width="2342.4" height="24.65"/>
            </clipPath>
<clipPath id="terminal-3030827708-line-11">
    <rect x="0" y="269.9" width="2342.4" height="24.65"/>
            </clipPath>
<clipPath id="terminal-3030827708-line-12">
    <rect x="0" y="294.3" width="2342.4" height="24.65"/>
            </clipPath>
<clipPath id="terminal-3030827708-line-13">
    <rect x="0" y="318.7" width="2342.4" height="24.65"/>
            </clipPath>
<clipPath id="terminal-3030827708-line-14">
    <rect x="0" y="343.1" width="2342.4" height="24.65"/>
            </clipPath>
<clipPath id="terminal-3030827708-line-15">
    <rect x="0" y="367.5" width="2342.4" height="24.65"/>
            </clipPath>
<clipPath id="terminal-3030827708-line-16">
    <rect x="0" y="391.9" width="2342.4" height="24.65"/>
            </clipPath>
<clipPath id="terminal-3030827708-line-17">
    <rect x="0" y="416.3" width="2342.4" height="24.65"/>
            </clipPath>
<clipPath id="terminal-3030827708-line-18">
    <rect x="0" y="440.7" width="2342.4" height="24.65"/>
            </clipPath>
<clipPath id="terminal-3030827708-line-19">
    <rect x="0" y="465.1" width="2342.4" height="24.65"/>
            </clipPath>
<clipPath id="terminal-3030827708-line-20">
    <rect x="0" y="489.5" width="2342.4" height="24.65"/>
            </clipPath>
    </defs>

    <rect fill="#292929" stroke="rgba(255,255,255,0.35)" stroke-width="1" x="1" y="1" width="2359" height="584.8" rx="8"/><text class="terminal-3030827708-title" fill="#c5c8c6" text-anchor="middle" x="1179" y="27">AMD&#160;GPU&#160;Stats</text>
            <g transform="translate(26,22)">
            <circle cx="0" cy="0" r="7" fill="#ff5f57"/>
            <circle cx="22" cy="0" r="7" fill="#febc2e"/>
            <circle cx="44" cy="0" r="7" fill="#28c840"/>
            </g>
        
    <g transform="translate(9, 41)" clip-path="url(#terminal-3030827708-clip-terminal)">
    <rect fill="#24292f" x="0" y="1.5" width="12.2" height="24.65" shape-rendering="crispEdges"/><rect fill="#24292f" x="12.2" y="1.5" width="12.2" height="24.65" shape-rendering="crispEdges"/><rect fill="#24292f" x="24.4" y="1.5" width="61" height="24.65" shape-rendering="crispEdges"/><rect fill="#24292f" x="85.4" y="1.5" width="12.2" height="24.65" shape-rendering="crispEdges"/><rect fill="#24292f" x="97.6" y="1.5" width="866.2" height="24.65" shape-rendering="crispEdges"/><rect fill="#24292f" x="963.8" y="1.5" width="195.2" height="24.65" shape-rendering="crispEdges"/><rect fill="#24292f" x="1159" y="1.5" width="195.2" height="24.65" shape-rendering="crispEdges"/><rect fill="#24292f" x="1354.2" y="1.5" width="866.2" height="24.65" shape-rendering="crispEdges"/><rect fill="#2c3137" x="2220.4" y="1.5" width="12.2" height="24.65" shape-rendering="crispEdges"/><rect fill="#2c3137" x="2232.6" y="1.5" width="97.6" height="24.65" shape-rendering="crispEdges"/><rect fill="#2c3137" x="2330.2" y="1.5" width="12.2" height="24.65" shape-rendering="crispEdges"/><rect fill="#24292f" x="0" y="25.9" width="97.6" height="24.65" shape-rendering="crispEdges"/><rect fill="#24292f" x="97.6" y="25.9" width="109.8" height="24.65" shape-rendering="crispEdges"/><rect fill="#24292f" x="207.4" y="25.9" width="85.4" height="24.65" shape-rendering="crispEdges"/><rect fill="#24292f" x="292.8" y="25.9" width="2049.6" height="24.65" shape-rendering="crispEdges"/><rect fill="#24292f" x="0" y="50.3" width="24.4" height="24.65" shape-rendering="crispEdges"/><rect fill="#24292f" x="24.4" y="50.3" width="61" height="24.65" shape-rendering="crispEdges"/><rect fill="#24292f" x="85.4" y="50.3" width="12.2" height="24.65" shape-rendering="crispEdges"/><rect fill="#24292f" x="97.6" y="50.3" width="24.4" height="24.65" shape-rendering="crispEdges"/><rect fill="#24292f" x="122" y="50.3" width="73.2" height="24.65" shape-rendering="crispEdges"/><rect fill="#24292f" x="195.2" y="50.3" width="12.2" height="24.65" shape-rendering="crispEdges"/><rect fill="#24292f" x="207.4" y="50.3" width="24.4" height="24.65" shape-rendering="crispEdges"/><rect fill="#24292f" x="231.8" y="50.3" width="48.8" height="24.65" shape-rendering="crispEdges"/><rect fill="#24292f" x="280.6" y="50.3" width="12.2" height="24.65" shape-rendering="crispEdges"/><rect fill="#24292f" x="292.8" y="50.3" width="2049.6" height="24.65" shape-rendering="crispEdges"/><rect fill="#24292f" x="0" y="74.7" width="12.2" height="24.65" shape-rendering="crispEdges"/><rect fill="#24292f" x="12.2" y="74.7" width="12.2" height="24.65" shape-rendering="crispEdges"/><rect fill="#24292f" x="24.4" y="74.7" width="61" height="24.65" shape-rendering="crispEdges"/><rect fill="#24292f" x="85.4" y="74.7" width="12.2" height="24.65" shape-rendering="crispEdges"/><rect fill="#24292f" x="97.6" y="74.7" width="2244.8" height="24.65" shape-rendering="crispEdges"/><rect fill="#24292f" x="0" y="99.1" width="12.2" height="24.65" shape-rendering="crispEdges"/><rect fill="#004578" x="12.2" y="99.1" width="85.4" height="24.65" shape-rendering="crispEdges"/><rect fill="#004578" x="97.6" y="99.1" width="146.4" height="24.65" shape-rendering="crispEdges"/><rect fill="#004578" x="244" y="99.1" width="170.8" height="24.65" shape-rendering="crispEdges"/><rect fill="#004578" x="414.8" y="99.1" width="85.4" height="24.65" shape-rendering="crispEdges"/><rect fill="#004578" x="500.2" y="99.1" width="109.8" height="24.65" shape-rendering="crispEdges"/><rect fill="#004578" x="610" y="99.1" width="85.4" height="24.65" shape-rendering="crispEdges"/><rect fill="#004578" x="695.4" y="99.1" width="12.2" height="24.65" shape-rendering="crispEdges"/><rect fill="#004578" x="707.6" y="99.1" width="61" height="24.65" shape-rendering="crispEdges"/><rect fill="#004578" x="768.6" y="99.1" width="12.2" height="24.65" shape-rendering="crispEdges"/><rect fill="#004578" x="780.8" y="99.1" width="12.2" height="24.65" shape-rendering="crispEdges"/><rect fill="#004578" x="793" y="99.1" width="85.4" height="24.65" shape-rendering="crispEdges"/><rect fill="#004578" x="878.4" y="99.1" width="12.2" height="24.65" shape-rendering="crispEdges"/><rect fill="#004578" x="890.6" y="99.1" width="12.2" height="24.65" shape-rendering="crispEdges"/><rect fill="#004578" x="902.8" y="99.1" width="122" height="24.65" shape-rendering="crispEdges"/><rect fill="#004578" x="1024.8" y="99.1" width="12.2" height="24.65" shape-rendering="crispEdges"/><rect fill="#004578" x="1037" y="99.1" width="109.8" height="24.65" shape-rendering="crispEdges"/><rect fill="#004578" x="1146.8" y="99.1" width="134.2" height="24.65" shape-rendering="crispEdges"/><rect fill="#004578" x="1281" y="99.1" width="183" height="24.65" shape-rendering="crispEdges"/><rect fill="#004578" x="1464" y="99.1" width="158.6" height="24.65" shape-rendering="crispEdges"/><rect fill="#093e65" x="1622.6" y="99.1" width="707.6" height="24.65" shape-rendering="crispEdges"/><rect fill="#24292f" x="2330.2" y="99.1" width="12.2" height="24.65" shape-rendering="crispEdges"/><rect fill="#24292f" x="0" y="123.5" width="12.2" height="24.65" shape-rendering="crispEdges"/><rect fill="#fea62b" x="12.2" y="123.5" width="85.4" height="24.65" shape-rendering="crispEdges"/><rect fill="#1e2d39" x="97.6" y="123.5" width="146.4" height="24.65" shape-rendering="crispEdges"/><rect fill="#1e2d39" x="244" y="123.5" width="170.8" height="24.65" shape-rendering="crispEdges"/><rect fill="#1e2d39" x="414.8" y="123.5" width="85.4" height="24.65" shape-rendering="crispEdges"/><rect fill="#1e2d39" x="500.2" y="123.5" width="109.8" height="24.65" shape-rendering="crispEdges"/><rect fill="#1e2d39" x="610" y="123.5" width="85.4" height="24.65" shape-rendering="crispEdges"/><rect fill="#1e2d39" x="695.4" y="123.5" width="85.4" height="24.65" shape-rendering="crispEdges"/><rect fill="#1e2d39" x="780.8" y="123.5" width="109.8" height="24.65" shape-rendering="crispEdges"/><rect fill="#1e2d39" x="890.6" y="123.5" width="146.4" height="24.65" shape-rendering="crispEdges"/><rect fill="#1e2d39" x="1037" y="123.5" width="109.8" height="24.65" shape-rendering="crispEdges"/><rect fill="#1e2d39" x="1146.8" y="123.5" width="134.2" height="24.65" shape-rendering="crispEdges"/><rect fill="#1e2d39" x="1281" y="123.5" width="183" height="24.65" shape-rendering="crispEdges"/><rect fill="#1e2d39" x="1464" y="123.5" width="158.6" height="24.65" shape-rendering="crispEdges"/><rect fill="#1f2c36" x="1622.6" y="123.5" width="707.6" height="24.65" shape-rendering="crispEdges"/><rect fill="#24292f" x="2330.2" y="123.5" width="12.2" height="24.65" shape-rendering="crispEdges"/><rect fill="#24292f" x="0" y="147.9" width="12.2" height="24.65" shape-rendering="crispEdges"/><rect fill="#24292f" x="12.2" y="147.9" width="2318" height="24.65" shape-rendering="crispEdges"/><rect fill="#24292f" x="2330.2" y="147.9" width="12.2" height="24.65" shape-rendering="crispEdges"/><rect fill="#24292f" x="0" y="172.3" width="12.2" height="24.65" shape-rendering="crispEdges"/><rect fill="#24292f" x="12.2" y="172.3" width="2318" height="24.65" shape-rendering="crispEdges"/><rect fill="#24292f" x="2330.2" y="172.3" width="12.2" height="24.65" shape-rendering="crispEdges"/><rect fill="#24292f" x="0" y="196.7" width="12.2" height="24.65" shape-rendering="crispEdges"/><rect fill="#24292f" x="12.2" y="196.7" width="2318" height="24.65" shape-rendering="crispEdges"/><rect fill="#24292f" x="2330.2" y="196.7" width="12.2" height="24.65" shape-rendering="crispEdges"/><rect fill="#24292f" x="0" y="221.1" width="12.2" height="24.65" shape-rendering="crispEdges"/><rect fill="#24292f" x="12.2" y="221.1" width="2318" height="24.65" shape-rendering="crispEdges"/><rect fill="#24292f" x="2330.2" y="221.1" width="12.2" height="24.65" shape-rendering="crispEdges"/><rect fill="#24292f" x="0" y="245.5" width="12.2" height="24.65" shape-rendering="crispEdges"/><rect fill="#24292f" x="12.2" y="245.5" width="2318" height="24.65" shape-rendering="crispEdges"/><rect fill="#24292f" x="2330.2" y="245.5" width="12.2" height="24.65" shape-rendering="crispEdges"/><rect fill="#24292f" x="0" y="269.9" width="12.2" height="24.65" shape-rendering="crispEdges"/><rect fill="#24292f" x="12.2" y="269.9" width="2318" height="24.65" shape-rendering="crispEdges"/><rect fill="#24292f" x="2330.2" y="269.9" width="12.2" height="24.65" shape-rendering="crispEdges"/><rect fill="#24292f" x="0" y="294.3" width="12.2" height="24.65" shape-rendering="crispEdges"/><rect fill="#24292f" x="12.2" y="294.3" width="2318" height="24.65" shape-rendering="crispEdges"/><rect fill="#24292f" x="2330.2" y="294.3" width="12.2" height="24.65" shape-rendering="crispEdges"/><rect fill="#24292f" x="0" y="318.7" width="12.2" height="24.65" shape-rendering="crispEdges"/><rect fill="#24292f" x="12.2" y="318.7" width="2318" height="24.65" shape-rendering="crispEdges"/><rect fill="#24292f" x="2330.2" y="318.7" width="12.2" height="24.65" shape-rendering="crispEdges"/><rect fill="#24292f" x="0" y="343.1" width="12.2" height="24.65" shape-rendering="crispEdges"/><rect fill="#24292f" x="12.2" y="343.1" width="2318" height="24.65" shape-rendering="crispEdges"/><rect fill="#24292f" x="2330.2" y="343.1" width="12.2" height="24.65" shape-rendering="crispEdges"/><rect fill="#24292f" x="0" y="367.5" width="12.2" height="24.65" shape-rendering="crispEdges"/><rect fill="#24292f" x="12.2" y="367.5" width="2318" height="24.65" shape-rendering="crispEdges"/><rect fill="#24292f" x="2330.2" y="367.5" width="12.2" height="24.65" shape-rendering="crispEdges"/><rect fill="#24292f" x="0" y="391.9" width="12.2" height="24.65" shape-rendering="crispEdges"/><rect fill="#24292f" x="12.2" y="391.9" width="2318" height="24.65" shape-rendering="crispEdges"/><rect fill="#24292f" x="2330.2" y="391.9" width="12.2" height="24.65" shape-rendering="crispEdges"/><rect fill="#24292f" x="0" y="416.3" width="12.2" height="24.65" shape-rendering="crispEdges"/><rect fill="#24292f" x="12.2" y="416.3" width="2318" height="24.65" shape-rendering="crispEdges"/><rect fill="#24292f" x="2330.2" y="416.3" width="12.2" height="24.65" shape-rendering="crispEdges"/><rect fill="#24292f" x="0" y="440.7" width="12.2" height="24.65" shape-rendering="crispEdges"/><rect fill="#24292f" x="12.2" y="440.7" width="2318" height="24.65" shape-rendering="crispEdges"/><rect fill="#24292f" x="2330.2" y="440.7" width="12.2" height="24.65" shape-rendering="crispEdges"/><rect fill="#24292f" x="0" y="465.1" width="12.2" height="24.65" shape-rendering="crispEdges"/><rect fill="#24292f" x="12.2" y="465.1" width="2318" height="24.65" shape-rendering="crispEdges"/><rect fill="#24292f" x="2330.2" y="465.1" width="12.2" height="24.65" shape-rendering="crispEdges"/><rect fill="#24292f" x="0" y="489.5" width="2342.4" height="24.65" shape-rendering="crispEdges"/><rect fill="#004578" x="0" y="513.9" width="36.6" height="24.65" shape-rendering="crispEdges"/><rect fill="#073b61" x="36.6" y="513.9" width="97.6" height="24.65" shape-rendering="crispEdges"/><rect fill="#004578" x="134.2" y="513.9" width="36.6" height="24.65" shape-rendering="crispEdges"/><rect fill="#073b61" x="170.8" y="513.9" width="146.4" height="24.65" shape-rendering="crispEdges"/><rect fill="#004578" x="317.2" y="513.9" width="36.6" height="24.65" shape-rendering="crispEdges"/><rect fill="#073b61" x="353.8" y="513.9" width="146.4" height="24.65" shape-rendering="crispEdges"/><rect fill="#004578" x="500.2" y="513.9" width="36.6" height="24.65" shape-rendering="crispEdges"/><rect fill="#073b61" x="536.8" y="513.9" width="158.6" height="24.65" shape-rendering="crispEdges"/><rect fill="#004578" x="695.4" y="513.9" width="36.6" height="24.65" shape-rendering="crispEdges"/><rect fill="#073b61" x="732" y="513.9" width="158.6" height="24.65" shape-rendering="crispEdges"/><rect fill="#004578" x="890.6" y="513.9" width="36.6" height="24.65" shape-rendering="crispEdges"/><rect fill="#073b61" x="927.2" y="513.9" width="73.2" height="24.65" shape-rendering="crispEdges"/><rect fill="#073b61" x="1000.4" y="513.9" width="1342" height="24.65" shape-rendering="crispEdges"/>
    <g class="terminal-3030827708-matrix">
    <text class="terminal-3030827708-r2" x="12.2" y="20" textLength="12.2" clip-path="url(#terminal-3030827708-line-0)">⭘</text><text class="terminal-3030827708-r2" x="963.8" y="20" textLength="195.2" clip-path="url(#terminal-3030827708-line-0)">AMD&#160;GPU&#160;Stats&#160;—&#160;</text><text class="terminal-3030827708-r3" x="1159" y="20" textLength="195.2" clip-path="url(#terminal-3030827708-line-0)">cards:&#160;[&#x27;card1&#x27;]</text><text class="terminal-3030827708-r4" x="2232.6" y="20" textLength="97.6" clip-path="url(#terminal-3030827708-line-0)">13:25:24</text><text class="terminal-3030827708-r1" x="2342.4" y="20" textLength="12.2" clip-path="url(#terminal-3030827708-line-0)">
</text><text class="terminal-3030827708-r1" x="2342.4" y="44.4" textLength="12.2" clip-path="url(#terminal-3030827708-line-1)">
</text><text class="terminal-3030827708-r5" x="24.4" y="68.8" textLength="61" clip-path="url(#terminal-3030827708-line-2)">Stats</text><text class="terminal-3030827708-r6" x="122" y="68.8" textLength="73.2" clip-path="url(#terminal-3030827708-line-2)">Graphs</text><text class="terminal-3030827708-r6" x="231.8" y="68.8" textLength="48.8" clip-path="url(#terminal-3030827708-line-2)">Logs</text><text class="terminal-3030827708-r1" x="2342.4" y="68.8" textLength="12.2" clip-path="url(#terminal-3030827708-line-2)">
</text><text class="terminal-3030827708-r7" x="0" y="93.2" textLength="12.2" clip-path="url(#terminal-3030827708-line-3)">━</text><text class="terminal-3030827708-r7" x="12.2" y="93.2" textLength="12.2" clip-path="url(#terminal-3030827708-line-3)">╸</text><text class="terminal-3030827708-r8" x="24.4" y="93.2" textLength="61" clip-path="url(#terminal-3030827708-line-3)">━━━━━</text><text class="terminal-3030827708-r7" x="85.4" y="93.2" textLength="12.2" clip-path="url(#terminal-3030827708-line-3)">╺</text><text class="terminal-3030827708-r7" x="97.6" y="93.2" textLength="2244.8" clip-path="url(#terminal-3030827708-line-3)">━━━━━━━━━━━━━━━━━━━━━━━━━━━━━━━━━━━━━━━━━━━━━━━━━━━━━━━━━━━━━━━━━━━━━━━━━━━━━━━━━━━━━━━━━━━━━━━━━━━━━━━━━━━━━━━━━━━━━━━━━━━━━━━━━━━━━━━━━━━━━━━━━━━━━━━━━━━━━━━━━━━━━━━━━━━━━━━━━━━━━━━━</text><text class="terminal-3030827708-r1" x="2342.4" y="93.2" textLength="12.2" clip-path="url(#terminal-3030827708-line-3)">
</text><text class="terminal-3030827708-r9" x="12.2" y="117.6" textLength="85.4" clip-path="url(#terminal-3030827708-line-4)">&#160;Card&#160;&#160;</text><text class="terminal-3030827708-r9" x="97.6" y="117.6" textLength="146.4" clip-path="url(#terminal-3030827708-line-4)">&#160;Core&#160;clock&#160;</text><text class="terminal-3030827708-r9" x="244" y="117.6" textLength="170.8" clip-path="url(#terminal-3030827708-line-4)">&#160;Memory&#160;clock&#160;</text><text class="terminal-3030827708-r9" x="414.8" y="117.6" textLength="85.4" clip-path="url(#terminal-3030827708-line-4)">&#160;Usage&#160;</text><text class="terminal-3030827708-r9" x="500.2" y="117.6" textLength="109.8" clip-path="url(#terminal-3030827708-line-4)">&#160;Voltage&#160;</text><text class="terminal-3030827708-r9" x="610" y="117.6" textLength="85.4" clip-path="url(#terminal-3030827708-line-4)">&#160;Power&#160;</text><text class="terminal-3030827708-r10" x="707.6" y="117.6" textLength="61" clip-path="url(#terminal-3030827708-line-4)">Limit</text><text class="terminal-3030827708-r10" x="793" y="117.6" textLength="85.4" clip-path="url(#terminal-3030827708-line-4)">Default</text><text class="terminal-3030827708-r10" x="902.8" y="117.6" textLength="122" clip-path="url(#terminal-3030827708-line-4)">Capability</text><text class="terminal-3030827708-r9" x="1037" y="117.6" textLength="109.8" clip-path="url(#terminal-3030827708-line-4)">&#160;Fan&#160;RPM&#160;</text><text class="terminal-3030827708-r9" x="1146.8" y="117.6" textLength="134.2" clip-path="url(#terminal-3030827708-line-4)">&#160;Edge&#160;temp&#160;</text><text class="terminal-3030827708-r9" x="1281" y="117.6" textLength="183" clip-path="url(#terminal-3030827708-line-4)">&#160;Junction&#160;temp&#160;</text><text class="terminal-3030827708-r9" x="1464" y="117.6" textLength="158.6" clip-path="url(#terminal-3030827708-line-4)">&#160;Memory&#160;temp&#160;</text><text class="terminal-3030827708-r1" x="2342.4" y="117.6" textLength="12.2" clip-path="url(#terminal-3030827708-line-4)">
</text><text class="terminal-3030827708-r12" x="12.2" y="142" textLength="85.4" clip-path="url(#terminal-3030827708-line-5)">&#160;card1&#160;</text><text class="terminal-3030827708-r13" x="97.6" y="142" textLength="146.4" clip-path="url(#terminal-3030827708-line-5)">&#160;&#160;&#160;&#160;&#160;48&#160;MHz&#160;</text><text class="terminal-3030827708-r13" x="244" y="142" textLength="170.8" clip-path="url(#terminal-3030827708-line-5)">&#160;&#160;&#160;&#160;&#160;&#160;&#160;&#160;1&#160;GHz&#160;</text><text class="terminal-3030827708-r13" x="414.8" y="142" textLength="85.4" clip-path="url(#terminal-3030827708-line-5)">&#160;&#160;&#160;&#160;6%&#160;</text><text class="terminal-3030827708-r13" x="500.2" y="142" textLength="109.8" clip-path="url(#terminal-3030827708-line-5)">&#160;&#160;&#160;0.78V&#160;</text><text class="terminal-3030827708-r13" x="610" y="142" textLength="85.4" clip-path="url(#terminal-3030827708-line-5)">&#160;&#160;&#160;36W&#160;</text><text class="terminal-3030827708-r13" x="695.4" y="142" textLength="85.4" clip-path="url(#terminal-3030827708-line-5)">&#160;&#160;281W&#160;</text><text class="terminal-3030827708-r13" x="780.8" y="142" textLength="109.8" clip-path="url(#terminal-3030827708-line-5)">&#160;&#160;&#160;&#160;281W&#160;</text><text class="terminal-3030827708-r13" x="890.6" y="142" textLength="146.4" clip-path="url(#terminal-3030827708-line-5)">&#160;&#160;&#160;&#160;&#160;&#160;&#160;323W&#160;</text><text class="terminal-3030827708-r13" x="1037" y="142" textLength="109.8" clip-path="url(#terminal-3030827708-line-5)">&#160;&#160;&#160;&#160;&#160;&#160;&#160;0&#160;</text><text class="terminal-3030827708-r13" x="1146.8" y="142" textLength="134.2" clip-path="url(#terminal-3030827708-line-5)">&#160;&#160;&#160;&#160;&#160;&#160;&#160;36C&#160;</text><text class="terminal-3030827708-r13" x="1281" y="142" textLength="183" clip-path="url(#terminal-3030827708-line-5)">&#160;&#160;&#160;&#160;&#160;&#160;&#160;&#160;&#160;&#160;&#160;39C&#160;</text><text class="terminal-3030827708-r13" x="1464" y="142" textLength="158.6" clip-path="url(#terminal-3030827708-line-5)">&#160;&#160;&#160;&#160;&#160;&#160;&#160;&#160;&#160;46C&#160;</text><text class="terminal-3030827708-r1" x="2342.4" y="142" textLength="12.2" clip-path="url(#terminal-3030827708-line-5)">
</text><text class="terminal-3030827708-r1" x="2342.4" y="166.4" textLength="12.2" clip-path="url(#terminal-3030827708-line-6)">
</text><text class="terminal-3030827708-r1" x="2342.4" y="190.8" textLength="12.2" clip-path="url(#terminal-3030827708-line-7)">
</text><text class="terminal-3030827708-r1" x="2342.4" y="215.2" textLength="12.2" clip-path="url(#terminal-3030827708-line-8)">
</text><text class="terminal-3030827708-r1" x="2342.4" y="239.6" textLength="12.2" clip-path="url(#terminal-3030827708-line-9)">
</text><text class="terminal-3030827708-r1" x="2342.4" y="264" textLength="12.2" clip-path="url(#terminal-3030827708-line-10)">
</text><text class="terminal-3030827708-r1" x="2342.4" y="288.4" textLength="12.2" clip-path="url(#terminal-3030827708-line-11)">
</text><text class="terminal-3030827708-r1" x="2342.4" y="312.8" textLength="12.2" clip-path="url(#terminal-3030827708-line-12)">
</text><text class="terminal-3030827708-r1" x="2342.4" y="337.2" textLength="12.2" clip-path="url(#terminal-3030827708-line-13)">
</text><text class="terminal-3030827708-r1" x="2342.4" y="361.6" textLength="12.2" clip-path="url(#terminal-3030827708-line-14)">
</text><text class="terminal-3030827708-r1" x="2342.4" y="386" textLength="12.2" clip-path="url(#terminal-3030827708-line-15)">
</text><text class="terminal-3030827708-r1" x="2342.4" y="410.4" textLength="12.2" clip-path="url(#terminal-3030827708-line-16)">
</text><text class="terminal-3030827708-r1" x="2342.4" y="434.8" textLength="12.2" clip-path="url(#terminal-3030827708-line-17)">
</text><text class="terminal-3030827708-r1" x="2342.4" y="459.2" textLength="12.2" clip-path="url(#terminal-3030827708-line-18)">
</text><text class="terminal-3030827708-r1" x="2342.4" y="483.6" textLength="12.2" clip-path="url(#terminal-3030827708-line-19)">
</text><text class="terminal-3030827708-r14" x="0" y="508" textLength="2342.4" clip-path="url(#terminal-3030827708-line-20)">━━━━━━━━━━━━━━━━━━━━━━━━━━━━━━━━━━━━━━━━━━━━━━━━━━━━━━━━━━━━━━━━━━━━━━━━━━━━━━━━━━━━━━━━━━━━━━━━━━━━━━━━━━━━━━━━━━━━━━━━━━━━━━━━━━━━━━━━━━━━━━━━━━━━━━━━━━━━━━━━━━━━━━━━━━━━━━━━━━━━━━━━━━━━━━━━</text><text class="terminal-3030827708-r1" x="2342.4" y="508" textLength="12.2" clip-path="url(#terminal-3030827708-line-20)">
</text><text class="terminal-3030827708-r9" x="0" y="532.4" textLength="36.6" clip-path="url(#terminal-3030827708-line-21)">&#160;C&#160;</text><text class="terminal-3030827708-r15" x="36.6" y="532.4" textLength="97.6" clip-path="url(#terminal-3030827708-line-21)">&#160;Colors&#160;</text><text class="terminal-3030827708-r9" x="134.2" y="532.4" textLength="36.6" clip-path="url(#terminal-3030827708-line-21)">&#160;T&#160;</text><text class="terminal-3030827708-r15" x="170.8" y="532.4" textLength="146.4" clip-path="url(#terminal-3030827708-line-21)">&#160;Tab&#160;switch&#160;</text><text class="terminal-3030827708-r9" x="317.2" y="532.4" textLength="36.6" clip-path="url(#terminal-3030827708-line-21)">&#160;S&#160;</text><text class="terminal-3030827708-r15" x="353.8" y="532.4" textLength="146.4" clip-path="url(#terminal-3030827708-line-21)">&#160;Screenshot&#160;</text><text class="terminal-3030827708-r9" x="500.2" y="532.4" textLength="36.6" clip-path="url(#terminal-3030827708-line-21)">&#160;↑&#160;</text><text class="terminal-3030827708-r15" x="536.8" y="532.4" textLength="158.6" clip-path="url(#terminal-3030827708-line-21)">&#160;Scroll&#160;Logs&#160;</text><text class="terminal-3030827708-r9" x="695.4" y="532.4" textLength="36.6" clip-path="url(#terminal-3030827708-line-21)">&#160;↓&#160;</text><text class="terminal-3030827708-r15" x="732" y="532.4" textLength="158.6" clip-path="url(#terminal-3030827708-line-21)">&#160;Scroll&#160;Logs&#160;</text><text class="terminal-3030827708-r9" x="890.6" y="532.4" textLength="36.6" clip-path="url(#terminal-3030827708-line-21)">&#160;Q&#160;</text><text class="terminal-3030827708-r15" x="927.2" y="532.4" textLength="73.2" clip-path="url(#terminal-3030827708-line-21)">&#160;Quit&#160;</text>
    </g>
    </g>
</svg>
