<svg class="rich-terminal" viewBox="0 0 1958 416.0" xmlns="http://www.w3.org/2000/svg">
    <!-- Generated with Rich https://www.textualize.io -->
    <style>

    @font-face {
        font-family: "Fira Code";
        src: local("FiraCode-Regular"),
                url("https://cdnjs.cloudflare.com/ajax/libs/firacode/6.2.0/woff2/FiraCode-Regular.woff2") format("woff2"),
                url("https://cdnjs.cloudflare.com/ajax/libs/firacode/6.2.0/woff/FiraCode-Regular.woff") format("woff");
        font-style: normal;
        font-weight: 400;
    }
    @font-face {
        font-family: "Fira Code";
        src: local("FiraCode-Bold"),
                url("https://cdnjs.cloudflare.com/ajax/libs/firacode/6.2.0/woff2/FiraCode-Bold.woff2") format("woff2"),
                url("https://cdnjs.cloudflare.com/ajax/libs/firacode/6.2.0/woff/FiraCode-Bold.woff") format("woff");
        font-style: bold;
        font-weight: 700;
    }

    .terminal-3587939946-matrix {
        font-family: Fira Code, monospace;
        font-size: 20px;
        line-height: 24.4px;
        font-variant-east-asian: full-width;
    }

    .terminal-3587939946-title {
        font-size: 18px;
        font-weight: bold;
        font-family: arial;
    }

    .terminal-3587939946-r1 { fill: #c5c8c6 }
.terminal-3587939946-r2 { fill: #e2e3e3 }
.terminal-3587939946-r3 { fill: #c7c9ca }
.terminal-3587939946-r4 { fill: #dde6ed;font-weight: bold }
.terminal-3587939946-r5 { fill: #dde6ed }
.terminal-3587939946-r6 { fill: #e1e2e3 }
.terminal-3587939946-r7 { fill: #e1e2e3;font-style: italic; }
.terminal-3587939946-r8 { fill: #dde8f3;font-weight: bold }
.terminal-3587939946-r9 { fill: #ddedf9 }
.terminal-3587939946-r10 { fill: #fef3e3;font-weight: bold }
.terminal-3587939946-r11 { fill: #ddeaf6 }
    </style>

    <defs>
    <clipPath id="terminal-3587939946-clip-terminal">
      <rect x="0" y="0" width="1938.8" height="365.0" />
    </clipPath>
    <clipPath id="terminal-3587939946-line-0">
    <rect x="0" y="1.5" width="1939.8" height="24.65"/>
            </clipPath>
<clipPath id="terminal-3587939946-line-1">
    <rect x="0" y="25.9" width="1939.8" height="24.65"/>
            </clipPath>
<clipPath id="terminal-3587939946-line-2">
    <rect x="0" y="50.3" width="1939.8" height="24.65"/>
            </clipPath>
<clipPath id="terminal-3587939946-line-3">
    <rect x="0" y="74.7" width="1939.8" height="24.65"/>
            </clipPath>
<clipPath id="terminal-3587939946-line-4">
    <rect x="0" y="99.1" width="1939.8" height="24.65"/>
            </clipPath>
<clipPath id="terminal-3587939946-line-5">
    <rect x="0" y="123.5" width="1939.8" height="24.65"/>
            </clipPath>
<clipPath id="terminal-3587939946-line-6">
    <rect x="0" y="147.9" width="1939.8" height="24.65"/>
            </clipPath>
<clipPath id="terminal-3587939946-line-7">
    <rect x="0" y="172.3" width="1939.8" height="24.65"/>
            </clipPath>
<clipPath id="terminal-3587939946-line-8">
    <rect x="0" y="196.7" width="1939.8" height="24.65"/>
            </clipPath>
<clipPath id="terminal-3587939946-line-9">
    <rect x="0" y="221.1" width="1939.8" height="24.65"/>
            </clipPath>
<clipPath id="terminal-3587939946-line-10">
    <rect x="0" y="245.5" width="1939.8" height="24.65"/>
            </clipPath>
<clipPath id="terminal-3587939946-line-11">
    <rect x="0" y="269.9" width="1939.8" height="24.65"/>
            </clipPath>
<clipPath id="terminal-3587939946-line-12">
    <rect x="0" y="294.3" width="1939.8" height="24.65"/>
            </clipPath>
<clipPath id="terminal-3587939946-line-13">
    <rect x="0" y="318.7" width="1939.8" height="24.65"/>
            </clipPath>
    </defs>

    <rect fill="#292929" stroke="rgba(255,255,255,0.35)" stroke-width="1" x="1" y="1" width="1956" height="414" rx="8"/><text class="terminal-3587939946-title" fill="#c5c8c6" text-anchor="middle" x="978" y="27">AMDGPUStats</text>
            <g transform="translate(26,22)">
            <circle cx="0" cy="0" r="7" fill="#ff5f57"/>
            <circle cx="22" cy="0" r="7" fill="#febc2e"/>
            <circle cx="44" cy="0" r="7" fill="#28c840"/>
            </g>
        
    <g transform="translate(9, 41)" clip-path="url(#terminal-3587939946-clip-terminal)">
    <rect fill="#24292f" x="0" y="1.5" width="12.2" height="24.65" shape-rendering="crispEdges"/><rect fill="#24292f" x="12.2" y="1.5" width="12.2" height="24.65" shape-rendering="crispEdges"/><rect fill="#24292f" x="24.4" y="1.5" width="61" height="24.65" shape-rendering="crispEdges"/><rect fill="#24292f" x="85.4" y="1.5" width="12.2" height="24.65" shape-rendering="crispEdges"/><rect fill="#24292f" x="97.6" y="1.5" width="793" height="24.65" shape-rendering="crispEdges"/><rect fill="#24292f" x="890.6" y="1.5" width="134.2" height="24.65" shape-rendering="crispEdges"/><rect fill="#24292f" x="1024.8" y="1.5" width="793" height="24.65" shape-rendering="crispEdges"/><rect fill="#2c3137" x="1817.8" y="1.5" width="12.2" height="24.65" shape-rendering="crispEdges"/><rect fill="#2c3137" x="1830" y="1.5" width="0" height="24.65" shape-rendering="crispEdges"/><rect fill="#2c3137" x="1830" y="1.5" width="97.6" height="24.65" shape-rendering="crispEdges"/><rect fill="#2c3137" x="1927.6" y="1.5" width="12.2" height="24.65" shape-rendering="crispEdges"/><rect fill="#004578" x="0" y="25.9" width="85.4" height="24.65" shape-rendering="crispEdges"/><rect fill="#004578" x="85.4" y="25.9" width="146.4" height="24.65" shape-rendering="crispEdges"/><rect fill="#004578" x="231.8" y="25.9" width="170.8" height="24.65" shape-rendering="crispEdges"/><rect fill="#004578" x="402.6" y="25.9" width="158.6" height="24.65" shape-rendering="crispEdges"/><rect fill="#004578" x="561.2" y="25.9" width="109.8" height="24.65" shape-rendering="crispEdges"/><rect fill="#004578" x="671" y="25.9" width="158.6" height="24.65" shape-rendering="crispEdges"/><rect fill="#004578" x="829.6" y="25.9" width="134.2" height="24.65" shape-rendering="crispEdges"/><rect fill="#004578" x="963.8" y="25.9" width="183" height="24.65" shape-rendering="crispEdges"/><rect fill="#004578" x="1146.8" y="25.9" width="146.4" height="24.65" shape-rendering="crispEdges"/><rect fill="#004578" x="1293.2" y="25.9" width="109.8" height="24.65" shape-rendering="crispEdges"/><rect fill="#004578" x="1403" y="25.9" width="134.2" height="24.65" shape-rendering="crispEdges"/><rect fill="#004578" x="1537.2" y="25.9" width="183" height="24.65" shape-rendering="crispEdges"/><rect fill="#004578" x="1720.2" y="25.9" width="158.6" height="24.65" shape-rendering="crispEdges"/><rect fill="#073b61" x="1878.8" y="25.9" width="61" height="24.65" shape-rendering="crispEdges"/><rect fill="#19232b" x="0" y="50.3" width="12.2" height="24.65" shape-rendering="crispEdges"/><rect fill="#19232b" x="12.2" y="50.3" width="61" height="24.65" shape-rendering="crispEdges"/><rect fill="#19232b" x="73.2" y="50.3" width="12.2" height="24.65" shape-rendering="crispEdges"/><rect fill="#19232b" x="85.4" y="50.3" width="12.2" height="24.65" shape-rendering="crispEdges"/><rect fill="#19232b" x="97.6" y="50.3" width="122" height="24.65" shape-rendering="crispEdges"/><rect fill="#19232b" x="219.6" y="50.3" width="12.2" height="24.65" shape-rendering="crispEdges"/><rect fill="#19232b" x="231.8" y="50.3" width="12.2" height="24.65" shape-rendering="crispEdges"/><rect fill="#19232b" x="244" y="50.3" width="146.4" height="24.65" shape-rendering="crispEdges"/><rect fill="#19232b" x="390.4" y="50.3" width="12.2" height="24.65" shape-rendering="crispEdges"/><rect fill="#19232b" x="402.6" y="50.3" width="12.2" height="24.65" shape-rendering="crispEdges"/><rect fill="#19232b" x="414.8" y="50.3" width="134.2" height="24.65" shape-rendering="crispEdges"/><rect fill="#19232b" x="549" y="50.3" width="12.2" height="24.65" shape-rendering="crispEdges"/><rect fill="#19232b" x="561.2" y="50.3" width="12.2" height="24.65" shape-rendering="crispEdges"/><rect fill="#19232b" x="573.4" y="50.3" width="85.4" height="24.65" shape-rendering="crispEdges"/><rect fill="#19232b" x="658.8" y="50.3" width="12.2" height="24.65" shape-rendering="crispEdges"/><rect fill="#19232b" x="671" y="50.3" width="12.2" height="24.65" shape-rendering="crispEdges"/><rect fill="#19232b" x="683.2" y="50.3" width="134.2" height="24.65" shape-rendering="crispEdges"/><rect fill="#19232b" x="817.4" y="50.3" width="12.2" height="24.65" shape-rendering="crispEdges"/><rect fill="#19232b" x="829.6" y="50.3" width="12.2" height="24.65" shape-rendering="crispEdges"/><rect fill="#19232b" x="841.8" y="50.3" width="109.8" height="24.65" shape-rendering="crispEdges"/><rect fill="#19232b" x="951.6" y="50.3" width="12.2" height="24.65" shape-rendering="crispEdges"/><rect fill="#19232b" x="963.8" y="50.3" width="12.2" height="24.65" shape-rendering="crispEdges"/><rect fill="#19232b" x="976" y="50.3" width="158.6" height="24.65" shape-rendering="crispEdges"/><rect fill="#19232b" x="1134.6" y="50.3" width="12.2" height="24.65" shape-rendering="crispEdges"/><rect fill="#19232b" x="1146.8" y="50.3" width="12.2" height="24.65" shape-rendering="crispEdges"/><rect fill="#19232b" x="1159" y="50.3" width="122" height="24.65" shape-rendering="crispEdges"/><rect fill="#19232b" x="1281" y="50.3" width="12.2" height="24.65" shape-rendering="crispEdges"/><rect fill="#19232b" x="1293.2" y="50.3" width="12.2" height="24.65" shape-rendering="crispEdges"/><rect fill="#19232b" x="1305.4" y="50.3" width="85.4" height="24.65" shape-rendering="crispEdges"/><rect fill="#19232b" x="1390.8" y="50.3" width="12.2" height="24.65" shape-rendering="crispEdges"/><rect fill="#19232b" x="1403" y="50.3" width="12.2" height="24.65" shape-rendering="crispEdges"/><rect fill="#19232b" x="1415.2" y="50.3" width="109.8" height="24.65" shape-rendering="crispEdges"/><rect fill="#19232b" x="1525" y="50.3" width="12.2" height="24.65" shape-rendering="crispEdges"/><rect fill="#19232b" x="1537.2" y="50.3" width="12.2" height="24.65" shape-rendering="crispEdges"/><rect fill="#19232b" x="1549.4" y="50.3" width="158.6" height="24.65" shape-rendering="crispEdges"/><rect fill="#19232b" x="1708" y="50.3" width="12.2" height="24.65" shape-rendering="crispEdges"/><rect fill="#19232b" x="1720.2" y="50.3" width="12.2" height="24.65" shape-rendering="crispEdges"/><rect fill="#19232b" x="1732.4" y="50.3" width="134.2" height="24.65" shape-rendering="crispEdges"/><rect fill="#19232b" x="1866.6" y="50.3" width="12.2" height="24.65" shape-rendering="crispEdges"/><rect fill="#1a2127" x="1878.8" y="50.3" width="61" height="24.65" shape-rendering="crispEdges"/><rect fill="#24292f" x="0" y="74.7" width="1939.8" height="24.65" shape-rendering="crispEdges"/><rect fill="#24292f" x="0" y="99.1" width="1939.8" height="24.65" shape-rendering="crispEdges"/><rect fill="#24292f" x="0" y="123.5" width="1939.8" height="24.65" shape-rendering="crispEdges"/><rect fill="#24292f" x="0" y="147.9" width="1939.8" height="24.65" shape-rendering="crispEdges"/><rect fill="#24292f" x="0" y="172.3" width="1939.8" height="24.65" shape-rendering="crispEdges"/><rect fill="#24292f" x="0" y="196.7" width="1939.8" height="24.65" shape-rendering="crispEdges"/><rect fill="#24292f" x="0" y="221.1" width="1939.8" height="24.65" shape-rendering="crispEdges"/><rect fill="#24292f" x="0" y="245.5" width="1939.8" height="24.65" shape-rendering="crispEdges"/><rect fill="#24292f" x="0" y="269.9" width="1939.8" height="24.65" shape-rendering="crispEdges"/><rect fill="#24292f" x="0" y="294.3" width="1939.8" height="24.65" shape-rendering="crispEdges"/><rect fill="#24292f" x="0" y="318.7" width="1939.8" height="24.65" shape-rendering="crispEdges"/><rect fill="#0053aa" x="0" y="343.1" width="36.6" height="24.65" shape-rendering="crispEdges"/><rect fill="#0178d4" x="36.6" y="343.1" width="97.6" height="24.65" shape-rendering="crispEdges"/><rect fill="#0053aa" x="134.2" y="343.1" width="36.6" height="24.65" shape-rendering="crispEdges"/><rect fill="#0178d4" x="170.8" y="343.1" width="73.2" height="24.65" shape-rendering="crispEdges"/><rect fill="#fea62b" x="244" y="343.1" width="36.6" height="24.65" shape-rendering="crispEdges"/><rect fill="#0065be" x="280.6" y="343.1" width="146.4" height="24.65" shape-rendering="crispEdges"/><rect fill="#0053aa" x="427" y="343.1" width="36.6" height="24.65" shape-rendering="crispEdges"/><rect fill="#0178d4" x="463.6" y="343.1" width="73.2" height="24.65" shape-rendering="crispEdges"/><rect fill="#0178d4" x="536.8" y="343.1" width="1403" height="24.65" shape-rendering="crispEdges"/>
    <g class="terminal-3587939946-matrix">
    <text class="terminal-3587939946-r2" x="12.2" y="20" textLength="12.2" clip-path="url(#terminal-3587939946-line-0)">⭘</text><text class="terminal-3587939946-r2" x="890.6" y="20" textLength="134.2" clip-path="url(#terminal-3587939946-line-0)">AMDGPUStats</text><text class="terminal-3587939946-r3" x="1830" y="20" textLength="97.6" clip-path="url(#terminal-3587939946-line-0)">21:57:16</text><text class="terminal-3587939946-r1" x="1939.8" y="20" textLength="12.2" clip-path="url(#terminal-3587939946-line-0)">
</text><text class="terminal-3587939946-r4" x="0" y="44.4" textLength="85.4" clip-path="url(#terminal-3587939946-line-1)">&#160;card&#160;&#160;</text><text class="terminal-3587939946-r4" x="85.4" y="44.4" textLength="146.4" clip-path="url(#terminal-3587939946-line-1)">&#160;core&#160;clock&#160;</text><text class="terminal-3587939946-r4" x="231.8" y="44.4" textLength="170.8" clip-path="url(#terminal-3587939946-line-1)">&#160;memory&#160;clock&#160;</text><text class="terminal-3587939946-r4" x="402.6" y="44.4" textLength="158.6" clip-path="url(#terminal-3587939946-line-1)">&#160;utilization&#160;</text><text class="terminal-3587939946-r4" x="561.2" y="44.4" textLength="109.8" clip-path="url(#terminal-3587939946-line-1)">&#160;voltage&#160;</text><text class="terminal-3587939946-r4" x="671" y="44.4" textLength="158.6" clip-path="url(#terminal-3587939946-line-1)">&#160;power&#160;usage&#160;</text><text class="terminal-3587939946-r4" x="829.6" y="44.4" textLength="134.2" clip-path="url(#terminal-3587939946-line-1)">&#160;set&#160;limit&#160;</text><text class="terminal-3587939946-r4" x="963.8" y="44.4" textLength="183" clip-path="url(#terminal-3587939946-line-1)">&#160;default&#160;limit&#160;</text><text class="terminal-3587939946-r4" x="1146.8" y="44.4" textLength="146.4" clip-path="url(#terminal-3587939946-line-1)">&#160;capability&#160;</text><text class="terminal-3587939946-r4" x="1293.2" y="44.4" textLength="109.8" clip-path="url(#terminal-3587939946-line-1)">&#160;fan&#160;rpm&#160;</text><text class="terminal-3587939946-r4" x="1403" y="44.4" textLength="134.2" clip-path="url(#terminal-3587939946-line-1)">&#160;edge&#160;temp&#160;</text><text class="terminal-3587939946-r4" x="1537.2" y="44.4" textLength="183" clip-path="url(#terminal-3587939946-line-1)">&#160;junction&#160;temp&#160;</text><text class="terminal-3587939946-r4" x="1720.2" y="44.4" textLength="158.6" clip-path="url(#terminal-3587939946-line-1)">&#160;memory&#160;temp&#160;</text><text class="terminal-3587939946-r1" x="1939.8" y="44.4" textLength="12.2" clip-path="url(#terminal-3587939946-line-1)">
</text><text class="terminal-3587939946-r7" x="12.2" y="68.8" textLength="61" clip-path="url(#terminal-3587939946-line-2)">card1</text><text class="terminal-3587939946-r7" x="97.6" y="68.8" textLength="122" clip-path="url(#terminal-3587939946-line-2)">&#160;&#160;&#160;500&#160;MHz</text><text class="terminal-3587939946-r7" x="244" y="68.8" textLength="146.4" clip-path="url(#terminal-3587939946-line-2)">&#160;&#160;&#160;&#160;&#160;&#160;&#160;1&#160;GHz</text><text class="terminal-3587939946-r7" x="414.8" y="68.8" textLength="134.2" clip-path="url(#terminal-3587939946-line-2)">&#160;&#160;&#160;&#160;&#160;&#160;&#160;&#160;&#160;0%</text><text class="terminal-3587939946-r7" x="573.4" y="68.8" textLength="85.4" clip-path="url(#terminal-3587939946-line-2)">&#160;&#160;0.78V</text><text class="terminal-3587939946-r7" x="683.2" y="68.8" textLength="134.2" clip-path="url(#terminal-3587939946-line-2)">&#160;&#160;&#160;&#160;&#160;&#160;&#160;&#160;35W</text><text class="terminal-3587939946-r7" x="841.8" y="68.8" textLength="109.8" clip-path="url(#terminal-3587939946-line-2)">&#160;&#160;&#160;&#160;&#160;281W</text><text class="terminal-3587939946-r7" x="976" y="68.8" textLength="158.6" clip-path="url(#terminal-3587939946-line-2)">&#160;&#160;&#160;&#160;&#160;&#160;&#160;&#160;&#160;281W</text><text class="terminal-3587939946-r7" x="1159" y="68.8" textLength="122" clip-path="url(#terminal-3587939946-line-2)">&#160;&#160;&#160;&#160;&#160;&#160;323W</text><text class="terminal-3587939946-r7" x="1305.4" y="68.8" textLength="85.4" clip-path="url(#terminal-3587939946-line-2)">&#160;&#160;&#160;&#160;&#160;&#160;0</text><text class="terminal-3587939946-r7" x="1415.2" y="68.8" textLength="109.8" clip-path="url(#terminal-3587939946-line-2)">&#160;&#160;&#160;&#160;&#160;&#160;33C</text><text class="terminal-3587939946-r7" x="1549.4" y="68.8" textLength="158.6" clip-path="url(#terminal-3587939946-line-2)">&#160;&#160;&#160;&#160;&#160;&#160;&#160;&#160;&#160;&#160;37C</text><text class="terminal-3587939946-r7" x="1732.4" y="68.8" textLength="134.2" clip-path="url(#terminal-3587939946-line-2)">&#160;&#160;&#160;&#160;&#160;&#160;&#160;&#160;42C</text><text class="terminal-3587939946-r1" x="1939.8" y="68.8" textLength="12.2" clip-path="url(#terminal-3587939946-line-2)">
</text><text class="terminal-3587939946-r1" x="1939.8" y="93.2" textLength="12.2" clip-path="url(#terminal-3587939946-line-3)">
</text><text class="terminal-3587939946-r1" x="1939.8" y="117.6" textLength="12.2" clip-path="url(#terminal-3587939946-line-4)">
</text><text class="terminal-3587939946-r1" x="1939.8" y="142" textLength="12.2" clip-path="url(#terminal-3587939946-line-5)">
</text><text class="terminal-3587939946-r1" x="1939.8" y="166.4" textLength="12.2" clip-path="url(#terminal-3587939946-line-6)">
</text><text class="terminal-3587939946-r1" x="1939.8" y="190.8" textLength="12.2" clip-path="url(#terminal-3587939946-line-7)">
</text><text class="terminal-3587939946-r1" x="1939.8" y="215.2" textLength="12.2" clip-path="url(#terminal-3587939946-line-8)">
</text><text class="terminal-3587939946-r1" x="1939.8" y="239.6" textLength="12.2" clip-path="url(#terminal-3587939946-line-9)">
</text><text class="terminal-3587939946-r1" x="1939.8" y="264" textLength="12.2" clip-path="url(#terminal-3587939946-line-10)">
</text><text class="terminal-3587939946-r1" x="1939.8" y="288.4" textLength="12.2" clip-path="url(#terminal-3587939946-line-11)">
</text><text class="terminal-3587939946-r1" x="1939.8" y="312.8" textLength="12.2" clip-path="url(#terminal-3587939946-line-12)">
</text><text class="terminal-3587939946-r1" x="1939.8" y="337.2" textLength="12.2" clip-path="url(#terminal-3587939946-line-13)">
</text><text class="terminal-3587939946-r8" x="0" y="361.6" textLength="36.6" clip-path="url(#terminal-3587939946-line-14)">&#160;C&#160;</text><text class="terminal-3587939946-r9" x="36.6" y="361.6" textLength="97.6" clip-path="url(#terminal-3587939946-line-14)">&#160;Colors&#160;</text><text class="terminal-3587939946-r8" x="134.2" y="361.6" textLength="36.6" clip-path="url(#terminal-3587939946-line-14)">&#160;L&#160;</text><text class="terminal-3587939946-r9" x="170.8" y="361.6" textLength="73.2" clip-path="url(#terminal-3587939946-line-14)">&#160;Logs&#160;</text><text class="terminal-3587939946-r10" x="244" y="361.6" textLength="36.6" clip-path="url(#terminal-3587939946-line-14)">&#160;S&#160;</text><text class="terminal-3587939946-r11" x="280.6" y="361.6" textLength="146.4" clip-path="url(#terminal-3587939946-line-14)">&#160;Screenshot&#160;</text><text class="terminal-3587939946-r8" x="427" y="361.6" textLength="36.6" clip-path="url(#terminal-3587939946-line-14)">&#160;Q&#160;</text><text class="terminal-3587939946-r9" x="463.6" y="361.6" textLength="73.2" clip-path="url(#terminal-3587939946-line-14)">&#160;Quit&#160;</text>
    </g>
    </g>
</svg>
